<svg xmlns="http://www.w3.org/2000/svg" xmlns:xlink="http://www.w3.org/1999/xlink" viewBox="0 0 437.78 417.32"><defs><style>.cls-1{fill:none;}.cls-2{clip-path:url(#clip-path);}.cls-3{fill:url(#radial-gradient);}.cls-4{fill:#223c72;}.cls-5{fill:#efebe7;}.cls-6{fill:#ef3827;}</style><clipPath id="clip-path"><path class="cls-1" d="M218.73,0c-89,0-170,60.4-192.39,150.76C0,257.13,64.89,364.68,171.24,391s213.91-38.55,240.23-144.91S372.94,32.17,266.56,5.86A198.88,198.88,0,0,0,218.75,0h0"/></clipPath><radialGradient id="radial-gradient" cx="-3242.28" cy="2264.99" r="1" gradientTransform="matrix(198.42, 0, 0, -198.43, 643560.01, 449635.1)" gradientUnits="userSpaceOnUse"><stop offset="0" stop-color="#fff"/><stop offset="0.78" stop-color="#fff"/><stop offset="0.82" stop-color="#f9f8f8"/><stop offset="0.88" stop-color="#e9e6e3"/><stop offset="0.94" stop-color="#cfc8c2"/><stop offset="1" stop-color="#b6aba1"/></radialGradient></defs><title>Asset 3</title><g id="Layer_2" data-name="Layer 2"><g id="Capa_1" data-name="Capa 1"><g class="cls-2"><rect class="cls-3" width="437.78" height="417.32"/></g><path class="cls-4" d="M26.34,150.76C52.65,44.38,160.21-20.47,266.56,5.86S437.78,139.72,411.47,246.08,277.61,417.32,171.24,391,0,257.13,26.34,150.76"/><path class="cls-5" d="M359.63,58.55l-79.78,53.18V9.65q-6.53-2.1-13.29-3.79A197.49,197.49,0,0,0,157.42,9.79V111.74L78,58.78a196.88,196.88,0,0,0-43,65.39l21,14H29.9c-1.31,4.12-2.51,8.31-3.56,12.57a197.33,197.33,0,0,0,4.17,109.86h26L35.68,274.51a199.43,199.43,0,0,0,43.67,64.94l78.07-52V387q6.79,2.2,13.82,3.95a197.39,197.39,0,0,0,108.61-3.77v-99.8l78.39,52.24A197,197,0,0,0,402,274.79l-21.25-14.16h26.51q2.36-7.14,4.19-14.55a197.46,197.46,0,0,0-3.53-107.88H381.3l21.45-14.3a199.18,199.18,0,0,0-43.12-65.35"/><path class="cls-6" d="M126.91,138.2l-73.66-49A196.29,196.29,0,0,0,40,112.62L78.45,138.2ZM384.25,88.81a199.62,199.62,0,0,0-16.34-21.37L279.85,126v12.2H310ZM53.79,308.39a199.83,199.83,0,0,0,16.38,21.33l87.25-58V260.63h-31.8Zm360.47-144.7H254.36V3.25a197.13,197.13,0,0,0-71.44,0v160.4H23.6a197.1,197.1,0,0,0,.3,71.41h159V393.5a197.2,197.2,0,0,0,71.44.16V235.1H413.85a197.36,197.36,0,0,0,.41-71.41M311.71,260.63l72.19,48a197.67,197.67,0,0,0,13.38-23.34l-37.11-24.67Z"/></g></g></svg>