<svg xmlns="http://www.w3.org/2000/svg" viewBox="0 0 62.66 84.55"><defs><style>.cls-1,.cls-2{fill:none;stroke:#fff;stroke-miterlimit:10;}.cls-2{stroke-width:2px;}.cls-3{fill:#721119;}.cls-4{fill:#472608;}.cls-5{fill:#2a3f29;}</style></defs><title>Asset 1</title><g id="Layer_2" data-name="Layer 2"><g id="Layer_1-2" data-name="Layer 1"><path class="cls-1" d="M.07,77.9c20.1-2.88,40.32,1.57,60.27,6a203.25,203.25,0,0,1,1.73-62.15,242.87,242.87,0,0,0-28.5-1.71c-7,0-26.83.31-26.83.31C3,51.4,4.07,77.33.07,77.9Z"/><path class="cls-2" d="M22.88,39.38a5.84,5.84,0,0,0,5.2-.18c.53-3.28-1.09-6.56-1-9.89.15-4.62,3.5-8.32,6.63-11.54a21.57,21.57,0,0,1-18.2-6.94,17.92,17.92,0,0,1,7.58-6.24A5.65,5.65,0,0,1,25.89,4C27.69,4.21,29,5.83,30,7.42a32.65,32.65,0,0,1,4.35,10.84c-1.35-4.59-2.54-10.11.4-13.78C36.86,1.89,40.34,1.2,43.55,1a6.09,6.09,0,0,1,3.79.68c1.8,1.2,2.14,4,1.28,6.05a12.22,12.22,0,0,1-4.38,4.81,55.68,55.68,0,0,1-10.75,6.14c3.52.21,3.87,4.21,4.48,7.88s.62,7.77,2.93,10.58L43.58,32"/><path class="cls-3" d="M22,48.48a11.41,11.41,0,0,0-5.19,10.26,13.09,13.09,0,0,0,6.23,10.38,15.88,15.88,0,0,0,10,1.62c4.58-.55,9.46-2.75,10.86-7.37a10.74,10.74,0,0,0,.39-3.76,14.42,14.42,0,0,0-5-9.92c-3-2.53-7,1.42-10.23-1.56C27.74,46.89,23.6,47.54,22,48.48Z"/><path class="cls-4" d="M30.9,45.47a4.42,4.42,0,0,0-3-2.67A2.46,2.46,0,0,1,28,44a2.24,2.24,0,0,1,2.21.52,2.2,2.2,0,0,1,.26.56,19.22,19.22,0,0,1,.81,3.43A5,5,0,0,0,30.9,45.47Z"/><path class="cls-5" d="M34.47,45.42a12.8,12.8,0,0,1,4.26-1.58,46.31,46.31,0,0,1,8-1.07c-1.07.76-1.67,2-2.71,2.84a7.79,7.79,0,0,1-2.51,1.12,39.62,39.62,0,0,1-7.93,1.82,10.91,10.91,0,0,1-1.45.14A4.94,4.94,0,0,1,34.47,45.42Z"/></g></g></svg>