<svg xmlns="http://www.w3.org/2000/svg" viewBox="0 0 115.43 115.67"><defs><style>.cls-1{fill:#fff;}</style></defs><title>Asset 1</title><g id="Layer_2" data-name="Layer 2"><g id="Object"><path class="cls-1" d="M50.35,3.7c.27-.22.52-.45.78-.67h-.82l-.61.07C49.35,3.51,49.93,4,50.35,3.7Z"/><path class="cls-1" d="M49.81,10.05c2.33-2.31,4.52-4.77,6.71-7H55.18a117.56,117.56,0,0,1-8.74,8.83l1.48-.07Z"/><path class="cls-1" d="M51.4,11.59l2.46-.17A102.82,102.82,0,0,0,63.12,3h-2.3C57.78,6,54.65,8.87,51.4,11.59Z"/><path class="cls-1" d="M56.56,11.23l1.84-.12q4.2-4,8.44-8.08h-2a1.8,1.8,0,0,0-.2.19C62,5.89,59.26,8.57,56.56,11.23Z"/><path class="cls-1" d="M64.42,9.86c-.31.33-.63.64-.94,1l.81,0C67.19,8.21,70.1,5.63,73,3H71.37c-2.29,2.15-4.6,4.27-6.92,6.39A.34.34,0,0,1,64.42,9.86Z"/><path class="cls-1" d="M71,10.71C73.69,8.15,76.38,5.6,79.06,3H76.85c-2.79,2.58-5.63,5.12-8.49,7.67C69.24,10.69,70.12,10.69,71,10.71Z"/><path class="cls-1" d="M77.54,11.1l1.34.17c2.42-2.42,4.81-4.86,7.2-7.3-.35-.11-.69-.23-1-.33C82.55,6.14,80.06,8.63,77.54,11.1Z"/><path class="cls-1" d="M81.76,11.73l1.49.31Q85,10.41,86.7,8.76C87.83,7.67,89,6.61,90.12,5.53L89,5,86.68,7.2Q84.26,9.5,81.76,11.73Z"/><path class="cls-1" d="M52.32,39.17a21.07,21.07,0,0,1,2.86-.61q4.26-4.19,8.6-8.28c-.78-.2-1.58-.37-2.37-.5C58.23,32.79,55.17,35.9,52.32,39.17Z"/><path class="cls-1" d="M58.89,38.41c.57,0,1.14.08,1.7.16q3.7-3.48,7.53-6.86l-1.28-.5c-1.48,1.32-3,2.63-4.44,4Q60.63,36.78,58.89,38.41Z"/><path class="cls-1" d="M88.82,13.51c2-1.83,4-3.66,6-5.51l-1.09-.64c-2.08,1.89-4.18,3.76-6.28,5.63C87.89,13.14,88.35,13.33,88.82,13.51Z"/><path class="cls-1" d="M66.19,40.25l6.6-6.19c-.46-.28-.93-.55-1.4-.8Q68,36.41,64.56,39.57C65.11,39.77,65.66,40,66.19,40.25Z"/><path class="cls-1" d="M92.71,15.4c1.83-1.68,3.68-3.35,5.53-5-.31-.24-.63-.47-.95-.7-1.91,1.67-3.82,3.35-5.71,5.05C92,14.94,92.34,15.17,92.71,15.4Z"/><path class="cls-1" d="M70.67,43.19Q74,40.3,77.19,37.33c-.54-.48-1.1-.95-1.67-1.39L69,41.86A19.76,19.76,0,0,1,70.67,43.19Z"/><path class="cls-1" d="M97,18.63,102,13.71c-.33-.33-.65-.66-1-1l-5.28,4.81C96.17,17.89,96.56,18.26,97,18.63Z"/><path class="cls-1" d="M84.3,30.74q2.92-2.76,5.84-5.55a5.45,5.45,0,0,0-2.38-.34l-4.1,3.72A6,6,0,0,0,84.3,30.74Z"/><path class="cls-1" d="M99.51,21.5c1.8-1.51,3.61-3,5.4-4.54-.25-.32-.51-.63-.77-.95l-5.47,4.44C99,20.79,99.24,21.15,99.51,21.5Z"/><path class="cls-1" d="M85.18,32a4.43,4.43,0,0,0,1.29,1c1.11-1.08,2.23-2.15,3.38-3.18.9-.81,1.81-1.6,2.72-2.39a0,0,0,0,0,0,0,5.32,5.32,0,0,0-.88-1.13C91,26.82,90.3,27.4,89.62,28,88.12,29.31,86.65,30.65,85.18,32Z"/><path class="cls-1" d="M73.56,46.35c2.1-2.11,4.16-4.28,6.2-6.45-.42-.49-.87-1-1.33-1.41q-3.14,3.09-6.23,6.2A19.67,19.67,0,0,1,73.56,46.35Z"/><path class="cls-1" d="M102,25.5c1.86-1.56,3.7-3.15,5.52-4.74-.16-.28-.34-.55-.51-.82-1.82,1.54-3.65,3.07-5.49,4.57C101.66,24.83,101.81,25.17,102,25.5Z"/><path class="cls-1" d="M75.5,49.61c2.2-2.2,4.3-4.5,6.46-6.68-.27-.43-.54-.86-.83-1.28-2.2,2.09-4.33,4.22-6.51,6.3C74.94,48.49,75.23,49,75.5,49.61Z"/><path class="cls-1" d="M76.71,53q3.39-3.65,6.73-7.34l-.24-.51q-3.32,3.59-6.68,7.11C76.59,52.48,76.65,52.74,76.71,53Z"/><path class="cls-1" d="M51.86,79.46c-.24.35.29.73.58.44.71-.69,1.43-1.36,2.15-2.05-.44-.06-.87-.15-1.3-.24C52.81,78.23,52.31,78.83,51.86,79.46Z"/><path class="cls-1" d="M77.3,56.93c2.6-2.35,5.2-4.71,7.77-7.08-.1-.36-.22-.71-.33-1.06q-3.8,3.38-7.53,6.81C77.26,56,77.28,56.48,77.3,56.93Z"/><path class="cls-1" d="M104.92,30.5c.14-.15-.08-.37-.22-.23l-.79.77c0,.13,0,.27.08.41C104.3,31.13,104.62,30.82,104.92,30.5Z"/><path class="cls-1" d="M76.92,61.88c3-3,5.91-5.94,8.87-8.9-.08-.46-.16-.93-.26-1.38C82.75,54.27,80,57,77.26,59.67A17.84,17.84,0,0,1,76.92,61.88Z"/><path class="cls-1" d="M54,83a.52.52,0,0,0,.67,0c2-1.69,3.91-3.43,5.83-5.18l-.85.14C57.74,79.6,55.85,81.28,54,83Z"/><path class="cls-1" d="M104.53,35.17c2.08-1.83,4.19-3.64,6.34-5.4,0-.19-.08-.37-.13-.56q-3.21,2.53-6.33,5.18Z"/><path class="cls-1" d="M75.13,66.85a19.31,19.31,0,0,1-3.23,4.47A17.61,17.61,0,0,1,67,75.51c-.44.25-.89.46-1.34.67q-5,5-10,9.93c.48,0,1,.06,1.47.07C67.22,77.52,76.19,67.3,85.68,58l.54-.54c0-.46,0-.91-.07-1.37l-1.21,1.17C81.66,60.44,78.4,63.65,75.13,66.85Z"/><path class="cls-1" d="M105,39.78c2.25-1.88,4.53-3.72,6.71-5.67,0-.17,0-.35-.08-.52-2.18,1.82-4.45,3.52-6.69,5.28Z"/><path class="cls-1" d="M65.51,81.27C64,82.76,62.52,84.38,61,86c.56-.06,1.12-.16,1.67-.26,6.08-6,12.1-12.13,18.12-18.22q2.55-2.58,5-5.18c.11-.63.21-1.26.27-1.91L83,63.7C77.23,69.62,71.33,75.41,65.51,81.27Z"/><path class="cls-1" d="M105.07,43.08c2.26-2.09,4.58-4.14,7-6.12,0-.33-.07-.67-.11-1q-3.54,2.77-6.88,5.76C105.05,42.17,105.06,42.63,105.07,43.08Z"/><path class="cls-1" d="M105.1,47.19c2.34-2.35,4.74-4.63,7.24-6.81,0-.32-.06-.63-.08-1-2.46,2-4.84,4-7.16,6.18Z"/><path class="cls-1" d="M66.07,86.71l-.07.07c.38-.09.76-.15,1.14-.25.72-.2,1.4-.47,2.09-.73l.25-.26A30.44,30.44,0,0,1,66.07,86.71Z"/><path class="cls-1" d="M72.93,81.85c3.5-3.82,6.89-7.7,10.31-11.38a29.34,29.34,0,0,0,1.61-3.88c-5.32,5.9-10.61,11.83-16.14,17.47A29.16,29.16,0,0,0,72.93,81.85Z"/><path class="cls-1" d="M105.15,53.75q3.61-3.66,7.44-7.08c0-.32,0-.64,0-1q-3.84,3.33-7.45,6.89C105.13,53,105.14,53.36,105.15,53.75Z"/><path class="cls-1" d="M52.4,104.16q-4.12,4-8.3,8a.57.57,0,0,0-.09.54h1.33q4.35-4.29,8.71-8.54Z"/><path class="cls-1" d="M77.16,80.82l0,0Z"/><path class="cls-1" d="M73.45,83.67a24.55,24.55,0,0,0,3.36-2.55,27.71,27.71,0,0,1-2.73,2Z"/><path class="cls-1" d="M50.9,110.2q3.47-3.06,6.87-6.19l-.53,0A55.26,55.26,0,0,0,50.9,110.2Z"/><path class="cls-1" d="M57.36,105.69c-2.52,2.35-5.06,4.66-7.63,7h.76Q53.82,109.09,57.36,105.69Z"/><path class="cls-1" d="M105.32,59.73q3.63-3.79,7.27-7.55c0-.43,0-.86,0-1.29q-3.69,3.72-7.33,7.48C105.29,58.82,105.31,59.27,105.32,59.73Z"/><path class="cls-1" d="M59.75,101.93l.3,0c.65-.6,1.28-1.21,1.91-1.82Z"/><path class="cls-1" d="M52.44,114.84l-.73.83.91-.84Z"/><path class="cls-1" d="M63.3,103.79c-3.07,2.88-6.07,5.81-8.91,8.87H55l8.47-7.73c.39-.36,1,.21.58.58q-3.19,3-6.38,6.11,4.34-3.9,8.6-7.85H63.85Z"/><path class="cls-1" d="M105.47,66.64q3.44-3.19,6.9-6.35l.06-1.64q-3.51,3.12-7,6.27C105.46,65.49,105.47,66.07,105.47,66.64Z"/><path class="cls-1" d="M105.31,74q3.3-3,6.81-5.71v-.25c0-.2,0-.41,0-.61q-3.48,2.66-6.78,5.53C105.35,73.34,105.33,73.69,105.31,74Z"/><path class="cls-1" d="M73.23,103.77c-2.71,2.43-5.43,4.87-8.1,7.36l-.69.7,2.39-.16c2.72-2.64,5.47-5.27,8.22-7.9Z"/><path class="cls-1" d="M104.62,80.56c2.12-2,4.23-3.91,6.33-5.88l1-1c0-.44,0-.87,0-1.3q-3.57,3.31-7.18,6.59C104.79,79.51,104.71,80,104.62,80.56Z"/><path class="cls-1" d="M77.54,103.77c-3,2.57-5.92,5.15-8.81,7.79,1,0,2-.06,3-.07q4.13-3.87,8.28-7.72Z"/><path class="cls-1" d="M85.35,103.22,76,111.5h1.94c3.54-3.07,7.08-6.11,10.56-9.19A23.43,23.43,0,0,1,85.35,103.22Z"/><path class="cls-1" d="M98.16,91.8Q94.57,95.06,91,98.26A17.3,17.3,0,0,0,98.16,91.8Z"/><path class="cls-1" d="M102.23,89.66q4.71-4.45,9.37-9c0-.48.07-1,.11-1.44q-4.21,4-8.48,7.9A22.17,22.17,0,0,1,102.23,89.66Z"/><path class="cls-1" d="M82.66,111.44c.75,0,1.5-.06,2.24-.11,2.57-2.42,5.15-4.82,7.71-7.24,5.9-5.58,12-10.94,18-16.4.11-.55.2-1.1.29-1.65-6.42,5.71-13,11.29-19.26,17.11Z"/><path class="cls-1" d="M93.7,109.79c.52-.24,1-.48,1.53-.74q6.26-6,12.45-12a30.24,30.24,0,0,0,1.21-2.94c-6,5.49-12,11-18,16.47C91.82,110.34,92.77,110.08,93.7,109.79Z"/><path class="cls-1" d="M5.79,24.64C11,19.23,16,13.43,20.94,8.11c-.66.23-1.3.47-1.94.73l-1.17.6c-3.35,3.72-6.73,7.41-10.18,11A34.19,34.19,0,0,0,5.79,24.64Z"/><path class="cls-1" d="M21.31,12C15.91,17.06,10.42,22.06,5,27.1c-.24.84-.46,1.68-.63,2.55q8.07-7.74,16.25-15.37c2.87-2.66,5.61-5.44,8.32-8.26-.64.12-1.28.26-1.91.4C25.14,8.3,23.25,10.17,21.31,12Z"/><path class="cls-1" d="M15.38,24.87a24,24,0,0,1,2.38-3.67q-6.92,6.57-14,13c0,.41,0,.82-.06,1.23C7.57,32,11.42,28.6,15.22,25.16Z"/><path class="cls-1" d="M2.05,36.08c0-.1,0-.19,0-.29L2,35.88c0,.41-.07.82-.1,1.22l.18-.16Z"/><path class="cls-1" d="M22.83,16.37a24.27,24.27,0,0,1,4-2.3q4.53-4.56,9-9.19c-.56.07-1.15.16-1.72.25C30.4,8.92,26.65,12.68,22.83,16.37Z"/><path class="cls-1" d="M35.06,12q4.34-4.11,8.7-8.17l-2.21.28q-4.45,4.06-8.86,8.17A23.23,23.23,0,0,1,35.06,12Z"/><path class="cls-1" d="M13,30.66C9.92,33.45,6.8,36.22,3.71,39v2.72q4.32-4,8.6-8.06C12.51,32.67,12.74,31.66,13,30.66Z"/><path class="cls-1" d="M50.42,5.66c.33-.25,0-.82-.33-.56-2.89,2.16-5.67,4.45-8.37,6.82h1.16C45.31,9.75,47.81,7.65,50.42,5.66Z"/><path class="cls-1" d="M11.39,41.1c-2.55,2.31-5.13,4.62-7.68,7v2.11c2.51-2.44,5-4.86,7.58-7.29C11.32,42.28,11.35,41.69,11.39,41.1Z"/><path class="cls-1" d="M11.22,45.05c-2.54,2.22-5.06,4.47-7.51,6.77v2.76q3.7-3.53,7.45-7C11.18,46.73,11.19,45.89,11.22,45.05Z"/><path class="cls-1" d="M49.88,10l-.07.07-1.89,1.74,1.44-.08C52.28,8.89,55.1,5.93,58,3H56.94C54.6,5.37,52.29,7.74,49.88,10Z"/><path class="cls-1" d="M11.09,51.54c-2.34,2.08-4.69,4.15-7,6.26l-.38.35v1.7c2.41-2.24,4.86-4.43,7.33-6.6C11.07,52.68,11.08,52.11,11.09,51.54Z"/><path class="cls-1" d="M66.87.09l-.05.05.51,0A.3.3,0,0,0,66.87.09Z"/><path class="cls-1" d="M56.56,11.23c2.7-2.66,5.4-5.34,8.09-8L64.83,3h-1q-4.24,4.16-8.53,8.29Z"/><path class="cls-1" d="M10.77,58l-7,6.53c0,.73,0,1.45.06,2.17l6.83-6.38C10.66,59.54,10.72,58.77,10.77,58Z"/><path class="cls-1" d="M64.45,9.42a.34.34,0,0,0-.57-.1c-.51.53-1,1-1.56,1.56l1.16-.05c.31-.33.63-.64.94-1A.34.34,0,0,0,64.45,9.42Z"/><path class="cls-1" d="M46.59,31.82,34.1,43.23a36,36,0,0,0-2.37,4.68c6-5.7,11.86-11.46,17.77-17.18A27.52,27.52,0,0,0,46.59,31.82Z"/><path class="cls-1" d="M10.29,64.82C8.15,66.76,6,68.7,3.87,70.63c0,.8,0,1.59.07,2.39C6,71.3,8.07,69.53,10.11,67.76Q10.19,66.29,10.29,64.82Z"/><path class="cls-1" d="M12.6,62.73l0,0c-.05,1-.09,2-.12,3l.15-.13Z"/><path class="cls-1" d="M55,32.16c1-.88,1.92-1.78,2.85-2.69h0c-.46,0-.91.05-1.37.07C48.4,36.91,39.57,43.42,31.31,50.62l-.77.69c-.26.89-.49,1.78-.67,2.68.56-.53,1.1-1.07,1.67-1.58C39.25,45.5,47.45,39.18,55,32.16Z"/><path class="cls-1" d="M10,71.23C8,73.13,6.08,75,4.11,76.86c0,.52.06,1,.1,1.57A66,66,0,0,0,9.9,74C9.9,73.06,9.92,72.14,10,71.23Z"/><path class="cls-1" d="M12.6,68.6l-.25.25c0,1,0,2-.06,3l.31-.3Z"/><path class="cls-1" d="M40.29,49.49c-3.62,2.92-7.22,5.86-10.78,8.87,0,.58,0,1.15.09,1.73q4.83-4.26,9.78-8.37A17.37,17.37,0,0,1,40.29,49.49Z"/><path class="cls-1" d="M5.75,79.4a.58.58,0,0,0,.59,1A26.59,26.59,0,0,0,10,78.3c0-.67-.07-1.35-.09-2C8.58,77.36,7.21,78.42,5.75,79.4Z"/><path class="cls-1" d="M12.6,74l-.31.28c0,.7,0,1.41,0,2.11v.27a3.88,3.88,0,0,0,.31-.26Z"/><path class="cls-1" d="M35.55,49.25a0,0,0,0,0,0-.06"/><path class="cls-1" d="M12.64,80.42l-.2.18c0,.27,0,.54.05.81l.19-.18C12.66,81,12.65,80.69,12.64,80.42Z"/><path class="cls-1" d="M10.38,82.46C8.64,84,6.89,85.49,5.16,87l.12.8c1.72-1.55,3.46-3.09,5.2-4.63C10.44,83,10.41,82.71,10.38,82.46Z"/><path class="cls-1" d="M39.18,52.35q-4.68,5-9.3,10c0,.2.05.39.09.58q4.48-5,9-9.91C39.07,52.79,39.12,52.57,39.18,52.35Z"/><path class="cls-1" d="M43.23,48.48a.14.14,0,0,0,0-.22c-.08.16-.15.33-.22.49l.18-.19Z"/><path class="cls-1" d="M38.57,60.44q-3.69,3.44-7.45,6.79c.1.3.21.59.32.88q3.66-3.44,7.24-7C38.64,60.92,38.61,60.68,38.57,60.44Z"/><path class="cls-1" d="M10.84,85.3c-1.74,1.45-3.5,2.9-5.24,4.38.11.57.22,1.15.35,1.71l5.17-4.71C11,86.23,10.93,85.76,10.84,85.3Z"/><path class="cls-1" d="M12.94,83.52l-.24.21c.05.45.11.91.18,1.36l.3-.28C13.08,84.39,13,84,12.94,83.52Z"/><path class="cls-1" d="M13.88,87.3l-.5.49c.13.51.26,1,.42,1.51l.59-.59C14.2,88.25,14,87.78,13.88,87.3Z"/><path class="cls-1" d="M11.83,89.31,7.05,94c.21.42.39.86.62,1.27,1.57-1.5,3.12-3,4.67-4.53C12.17,90.26,12,89.79,11.83,89.31Z"/><path class="cls-1" d="M39.12,63.1q-3.57,3.2-7,6.49c.15.34.31.67.47,1q3.39-3.33,6.85-6.58C39.29,63.71,39.2,63.4,39.12,63.1Z"/><path class="cls-1" d="M40.88,67.37c-.12-.22-.24-.45-.35-.68q-3.36,3.09-6.67,6.23c.18.27.34.57.52.84q3.25-3.17,6.55-6.28A1.17,1.17,0,0,0,40.88,67.37Z"/><path class="cls-1" d="M13.27,92.94l-4.4,4.33c.28.45.57.88.87,1.31,1.44-1.43,2.86-2.88,4.28-4.34C13.76,93.82,13.5,93.39,13.27,92.94Z"/><path class="cls-1" d="M15.4,90.86l-.74.72c.2.45.42.9.66,1.33l.79-.82C15.87,91.69,15.62,91.28,15.4,90.86Z"/><path class="cls-1" d="M17.26,93.82l-.83.85c.22.31.47.6.72.9l.81-.82C17.72,94.45,17.49,94.13,17.26,93.82Z"/><path class="cls-1" d="M42.23,70c-.2-.32-.38-.67-.56-1-2.1,2-4.17,4.09-6.21,6.17.23.3.45.6.7.89Q39.16,73,42.23,70Z"/><path class="cls-1" d="M15.19,95.91l-4.26,4.26c.24.31.5.61.75.91L16,96.78C15.69,96.5,15.43,96.21,15.19,95.91Z"/><path class="cls-1" d="M19.75,96.74l-.67.72c.36.29.72.58,1.11.85l.57-.64C20.42,97.36,20.07,97.06,19.75,96.74Z"/><path class="cls-1" d="M43.3,71.52c-2,1.94-4,3.91-5.9,5.93.35.37.72.72,1.1,1.08q2.79-3,5.66-6A11.59,11.59,0,0,1,43.3,71.52Z"/><path class="cls-1" d="M18,98.66q-2.13,2.31-4.28,4.59c.35.35.73.67,1.11,1,1.45-1.58,2.88-3.18,4.3-4.76C18.73,99.23,18.35,99,18,98.66Z"/><path class="cls-1" d="M47.77,75.44,47.06,75c-2,1.91-3.88,3.86-5.78,5.83.25.18.48.38.74.55Q44.85,78.37,47.77,75.44Z"/><path class="cls-1" d="M22.75,99.26l-.35.33c.39.19.78.37,1.18.54l.19-.18Q23.26,99.62,22.75,99.26Z"/><path class="cls-1" d="M21.18,100.72q-2.52,2.34-5.06,4.66c.34.27.69.52,1,.78q2.58-2.44,5.18-4.87C22,101.11,21.56,100.92,21.18,100.72Z"/><path class="cls-1" d="M25.55,102.5c-1.9,1.82-3.82,3.63-5.73,5.44.34.2.67.42,1,.61,2.05-1.86,4.08-3.75,6.06-5.67C26.44,102.77,26,102.64,25.55,102.5Z"/><path class="cls-1" d="M50.92,76.94q-3,3.06-6,6.14c.31.16.63.3.94.45,2-2.09,4-4.19,6-6.27C51.57,77.16,51.24,77.06,50.92,76.94Z"/><path class="cls-1" d="M30,103.53l-3,2.84c-1.2,1.15-2.42,2.28-3.65,3.42.51.22,1,.43,1.55.63l7-6.64C31.22,103.71,30.6,103.63,30,103.53Z"/><path class="cls-1" d="M59.63,77.92c-.61.07-1.23.11-1.84.13q-4,3.48-7.88,7c.46.14.94.26,1.42.37L54,83C55.85,81.28,57.74,79.6,59.63,77.92Z"/><path class="cls-1" d="M39.1,104.14l-1.22,0c-2.66,2.59-5.28,5.22-7.91,7.85.4.08.8.13,1.2.2C33.8,109.46,36.43,106.78,39.1,104.14Z"/><path class="cls-1" d="M72,78a82.74,82.74,0,0,0-8.8,7.74c.47-.09.92-.2,1.38-.32a80.75,80.75,0,0,1,7.79-6.79C72.74,78.31,72.38,77.68,72,78Z"/><path class="cls-1" d="M43.7,104.21q-4.55,4.14-9,8.34c.52,0,1,.07,1.57.08q4.47-4.22,9-8.41Z"/><path class="cls-1" d="M72,84.35c-.27.15-.56.27-.83.4l-.45.44c.46-.22.93-.44,1.37-.68A.32.32,0,0,0,72,84.35Z"/><path class="cls-1" d="M52.4,104.16l-1.45,0q-4.56,4.27-9.17,8.48h1.75l.57-.54Q48.27,108.16,52.4,104.16Z"/><path class="cls-1" d="M59.2,104l-1.43.05q-3.41,3.13-6.87,6.19l-2.8,2.46h1.63c2.57-2.31,5.11-4.62,7.63-7C58,105.12,58.59,104.54,59.2,104Z"/><path class="cls-1" d="M64.05,105.51c.39-.37-.19-.94-.58-.58L55,112.66h.32l1.4-.13c.31-.31.63-.61,1-.91Q60.85,108.54,64.05,105.51Z"/><path class="cls-1" d="M66.13,110.12c.33-.35-.19-.88-.53-.53-.8.8-1.62,1.57-2.44,2.34l1.28-.1.69-.7Z"/><path class="cls-1" d="M95.23,109.05c-.5.26-1,.5-1.53.74a21,21,0,0,0,8.24-4.74,26.41,26.41,0,0,0,3.3-3.84A33.14,33.14,0,0,1,95.23,109.05Z"/><path class="cls-1" d="M101.69,90.78l-.21.42C101.55,91.06,101.61,90.92,101.69,90.78Z"/><path class="cls-1" d="M55.18,3H80.29c1,0,2,.06,3,.15a36.29,36.29,0,0,0-3.93-.76C70.12,1.22,60,1.92,50.31,3h4.87Z"/><path class="cls-1" d="M114.46,80a53.54,53.54,0,0,1-3.73,16.28,33.06,33.06,0,0,0,1.83-4c.31-.78.62-1.56.87-2.36A35.2,35.2,0,0,0,114.69,84c.06-.49.11-1,.16-1.47.08-1,.14-1.93.14-2.91V72.26C114.84,74.84,114.67,77.42,114.46,80Z"/><path class="cls-1" d="M3.71,59.85V36.08c0-.22,0-.44,0-.66,0-.41,0-.82.06-1.23a32.36,32.36,0,0,1,.55-4.54c.17-.87.39-1.71.63-2.55s.51-1.66.81-2.46a34.19,34.19,0,0,1,1.86-4.19,33.14,33.14,0,0,1,7.93-9.71,30,30,0,0,0-5.93,4.67,22.39,22.39,0,0,0-2.2,2.7A16.59,16.59,0,0,0,6,21.57a.8.8,0,0,1-.78.58A40,40,0,0,0,2.15,34c0,.58-.08,1.17-.09,1.76,0,.1,0,.19,0,.29V47.13c.42,4.24,1.12,8.43,1.43,12.72.11,1.45.18,2.91.23,4.36Z"/><path class="cls-1" d="M89.59,2.91c12.41,4.93,21.87,15.16,24,28.46.68,4.34,1.14,8.75,1.44,13.19V36.08c0-.49,0-1-.07-1.45,0-.31,0-.61,0-.92-.05-.81-.14-1.62-.25-2.43,0-.11,0-.23-.05-.35a33.94,33.94,0,0,0-.72-3.53c0-.17-.08-.33-.13-.5a34.4,34.4,0,0,0-3.59-8.45c-.15-.25-.3-.5-.46-.75a34.6,34.6,0,0,0-2.11-3c-.23-.3-.46-.61-.71-.91-.73-.87-1.51-1.7-2.32-2.49-.31-.31-.64-.59-1-.88-.89-.81-1.82-1.57-2.79-2.29-.31-.22-.6-.47-.92-.68a30.83,30.83,0,0,0-2.69-1.66c-.36-.21-.74-.39-1.11-.58a34,34,0,0,0-3.81-1.66L91.06,3.1c-1.07-.34-2.15-.64-3.26-.89l-.71-.16C87.93,2.31,88.76,2.59,89.59,2.91Z"/><path class="cls-1" d="M99.05,21.23a26.19,26.19,0,0,1,5.29,12.71c-.08-.84-.19-1.67-.35-2.49,0-.14,0-.28-.08-.41A24,24,0,0,0,102,25.5c-.16-.33-.31-.67-.48-1a25.2,25.2,0,0,0-2-3c-.27-.35-.55-.71-.84-1.05A22.72,22.72,0,0,0,97,18.63c-.39-.37-.78-.74-1.2-1.09a24.06,24.06,0,0,0-3-2.14c-.37-.23-.74-.46-1.13-.66a24.39,24.39,0,0,0-2.76-1.23c-.47-.18-.93-.37-1.41-.52A25,25,0,0,0,84,12.24C89.88,13.71,95.1,16.43,99.05,21.23Z"/><path class="cls-1" d="M102.79,41.61V54.68c.28-5.66.64-12,0-17.9v4.83Z"/><path class="cls-1" d="M54.39,112.66H36.76c-.17,0-.34,0-.51,0-.53,0-1,0-1.57-.08a31.14,31.14,0,0,1-3.51-.4c-.4-.07-.8-.12-1.2-.2a33.48,33.48,0,0,1-5.08-1.53c-.52-.2-1-.41-1.55-.63-.85-.38-1.69-.79-2.51-1.24-.34-.19-.67-.41-1-.61-.92-.56-1.8-1.15-2.66-1.78-.35-.26-.7-.51-1-.78s-.87-.74-1.3-1.12-.76-.66-1.11-1c-.71-.69-1.38-1.42-2-2.17-.25-.3-.51-.6-.75-.91-.41-.52-.81-1-1.19-1.59s-.59-.86-.87-1.31c-.42-.65-.83-1.31-1.2-2-.23-.41-.41-.85-.62-1.27-.38-.79-.73-1.58-1-2.39a23.21,23.21,0,0,0,6,11.67,35.74,35.74,0,0,0,16.86,9c8.4,1.9,17.53,1.21,26.46.37h-.93Z"/><path class="cls-1" d="M82,102.68c-6,.42-12.09.8-18.16,1.09H80.29a24.14,24.14,0,0,0,5.06-.55,23.43,23.43,0,0,0,3.1-.9,24.17,24.17,0,0,0,7.32-4.19C92.06,100.91,87.36,102.31,82,102.68Z"/><path class="cls-1" d="M102.54,88.8c-.2.54-.42,1.06-.65,1.56.11-.23.23-.46.34-.7a22.17,22.17,0,0,0,1-2.53,23.94,23.94,0,0,0,1-4.16A39,39,0,0,1,102.54,88.8Z"/><path class="cls-1" d="M58.69,114.32h21.6c.51,0,1-.06,1.51-.08a35,35,0,0,0,5.75-.7c1.08-.23,2.15-.51,3.19-.84C80.48,114.86,68.72,113.4,58.69,114.32Z"/><path class="cls-1" d="M37.68,2.19c2.59-.33,5.19-.59,7.79-.82H36.76a35.9,35.9,0,0,0-3.61.19c-.55.06-1.09.17-1.63.25a34.48,34.48,0,0,0-6,1.47,33.54,33.54,0,0,0-3.35,1.36,34.1,34.1,0,0,0-5,2.8C23.58,4.4,31.17,3,37.68,2.19Z"/><path class="cls-1" d="M18.85,20c5.67-6.18,13.48-7.74,21.44-8a1.22,1.22,0,0,1,.49-.09c1.24,0,2.54,0,3.87,0H36.76c-.57,0-1.14.05-1.7.09a23.23,23.23,0,0,0-2.37.28,23.9,23.9,0,0,0-5.83,1.78,24.27,24.27,0,0,0-4,2.3,24.71,24.71,0,0,0-5.07,4.83,24,24,0,0,0-2.38,3.67A24.26,24.26,0,0,1,18.85,20Z"/><path class="cls-1" d="M60.82,13.58h18c-6.18-.79-12.8-.45-19.27,0h1.23Z"/><path class="cls-1" d="M12.6,65.62v14c0,.27,0,.54,0,.81s0,.54,0,.81c.05.77.14,1.54.26,2.29.08.43.14.87.24,1.29a22.9,22.9,0,0,0,.7,2.49c.16.48.32,1,.51,1.41a23.42,23.42,0,0,0,1,2.15c.22.42.47.83.71,1.23.36.59.75,1.17,1.15,1.73.23.31.46.63.7.93a22.49,22.49,0,0,0,1.79,2c.32.32.67.62,1,.93.64.56,1.3,1.09,2,1.59q.51.36,1,.69c.37.24.75.47,1.13.68,6,2.07,12.64,1.62,18.86,1.67,4.17,0,8.29,0,12.41-.19H36.76a22.14,22.14,0,0,1-2.95-.22c-.6-.08-1.2-.17-1.8-.29a23.77,23.77,0,0,1-2.91-.86c-.41-.15-.83-.29-1.23-.47A22.6,22.6,0,0,1,25,98.77c-.35-.21-.71-.43-1.05-.66a22.75,22.75,0,0,1-2.11-1.67c-.34-.31-.69-.6-1-.93a21.22,21.22,0,0,1-1.72-2c-.24-.3-.47-.61-.7-.93a20.51,20.51,0,0,1-1.14-1.77c-.23-.4-.45-.81-.65-1.22a21.68,21.68,0,0,1-1-2.21c-.18-.47-.35-.94-.5-1.43a23.05,23.05,0,0,1-.57-2.49c-.08-.42-.14-.84-.19-1.26a22.81,22.81,0,0,1-.17-2.5V36.08a22.88,22.88,0,0,1,.5-4.71c.05-.23.12-.45.18-.68-.27.82-.51,1.66-.71,2.5-1.53,6.7-1.15,13.66-1.32,20.47-.06,2.79-.19,5.58-.31,8.37v3.59Z"/><path class="cls-1" d="M3.14,74.44A106.63,106.63,0,0,0,2.05,60.28V79.61a34.33,34.33,0,0,0,1.26,9.12c.06.24.11.49.19.74.15.53.34,1,.52,1.57.11.3.22.61.34.92C3.13,86.46,3.11,80.43,3.14,74.44Z"/><path class="cls-1" d="M39.18,52.35c-.06.22-.11.44-.17.66a19.26,19.26,0,0,0-.63,4.83,20.13,20.13,0,0,0,.19,2.6c0,.24.07.48.11.72.12.66.26,1.3.44,1.94.08.3.17.61.27.91a18.13,18.13,0,0,0,1.14,2.68c.11.23.23.46.35.68-3-7.39-2-21.87,6.4-25.18,8-5.93,19.66-2.83,25.37,5.38a20,20,0,0,1-.75,23.75,19.34,19.34,0,0,0,5-9.44,17.84,17.84,0,0,0,.34-2.21c0-.6.09-1.21.09-1.83,0-.31,0-.61,0-.91,0-.45,0-.89-.09-1.33a19.23,19.23,0,0,0-.5-2.62c-.06-.24-.12-.5-.19-.74a18.59,18.59,0,0,0-1-2.63c-.27-.57-.56-1.12-.88-1.66s-.68-1.09-1.06-1.6a19.67,19.67,0,0,0-1.36-1.66,18.05,18.05,0,0,0-1.53-1.5,18.75,18.75,0,0,0-4.48-2.94c-.53-.25-1.08-.48-1.63-.68a19.41,19.41,0,0,0-4-1c-.56-.08-1.13-.13-1.7-.16-.34,0-.68,0-1,0a19.77,19.77,0,0,0-2.68.2,21.07,21.07,0,0,0-2.86.61,20.47,20.47,0,0,0-2.76,1.07,19.36,19.36,0,0,0-9.27,9.25,17.37,17.37,0,0,0-.91,2.23C39.31,51.93,39.24,52.14,39.18,52.35Z"/><path class="cls-1" d="M63,74.91a20.06,20.06,0,0,1-2.2.5,18,18,0,0,1-3,.26c-.32,0-.63,0-.94,0a17.61,17.61,0,0,1-1.81-.18c-.35-.06-.69-.11-1-.18l-.19-.05c-.34-.08-.68-.16-1-.26a17.49,17.49,0,0,1-3.26-1.31l-.72-.41a18.26,18.26,0,0,1-3.16-2.35c-.3-.28-.59-.57-.88-.88s-.75-.84-1.09-1.28c4.71,7.58,14.66,9.35,22.2,5.07.34-.19.64-.41,1-.62a18,18,0,0,1-3,1.42Z"/><path class="cls-1" d="M69.48,85.54c.56-.24,1.1-.52,1.65-.79.27-.13.56-.25.83-.4.73-.39,1.43-.82,2.12-1.27a27.71,27.71,0,0,0,2.73-2c.11-.1.23-.18.33-.28l0,0c8.41-7.88,11.74-21.43,7.75-32.37a27,27,0,0,0-4.77-8.13c.34.44.68.88,1,1.33s.56.85.83,1.28c.44.71.86,1.45,1.24,2.2l.24.51a29,29,0,0,1,1.3,3.15c.11.35.23.7.33,1.06.17.57.32,1.16.46,1.75s.18.92.26,1.38a26.66,26.66,0,0,1,.36,3.11c0,.46.07.91.07,1.37,0,.13,0,.26,0,.38,0,.89,0,1.76-.13,2.63-.06.65-.16,1.28-.27,1.91a28,28,0,0,1-1,4.21,29.34,29.34,0,0,1-1.61,3.88A28.57,28.57,0,0,1,72.93,81.85a29.16,29.16,0,0,1-4.22,2.21,27.6,27.6,0,0,1-4.13,1.32c-.46.12-.91.23-1.38.32l-.53.08c-.55.1-1.11.2-1.67.26a29.43,29.43,0,0,1-3.14.18c-.25,0-.5,0-.76,0-.49,0-1,0-1.47-.07a28.77,28.77,0,0,1-4.3-.68c-.48-.11-1-.23-1.42-.37a26.76,26.76,0,0,1-4-1.53c-.31-.15-.63-.29-.94-.45A28.23,28.23,0,0,1,42,81.37c-.26-.17-.49-.37-.74-.55a28,28,0,0,1-2.78-2.29c-.38-.36-.75-.71-1.1-1.08s-.85-.9-1.24-1.37c-.25-.29-.47-.59-.7-.89-.37-.47-.74-.94-1.08-1.43-.18-.27-.34-.57-.52-.84-.47-.76-.91-1.53-1.32-2.33-.16-.33-.32-.66-.47-1s-.43-1-.63-1.48c-.11-.29-.22-.58-.32-.88A28.18,28.18,0,0,1,30,62.92c0-.19-.06-.38-.09-.58-.12-.74-.22-1.49-.28-2.25,0-.58-.08-1.15-.09-1.73,0-.18,0-.34,0-.52,0-.76.05-1.51.11-2.25a25.88,25.88,0,0,0,.93,12.15c4.69,13.88,19.82,21.88,33.92,19.39.54-.12,1.08-.27,1.62-.42A30.44,30.44,0,0,0,69.48,85.54Z"/><path class="cls-1" d="M49.5,30.73a27.87,27.87,0,0,1,7-1.19c.46,0,.91-.07,1.37-.07h0c.7,0,1.37.05,2,.1h.13A26.85,26.85,0,0,0,44.73,32a32.27,32.27,0,0,0-5.27,4.33,28.17,28.17,0,0,1,7.13-4.47A27.52,27.52,0,0,1,49.5,30.73Z"/><path class="cls-1" d="M44.57,46c.18-.19.34-.39.52-.57l-.08,0c-.18.22-.34.46-.51.69Z"/><path class="cls-1" d="M80.82,31.14a7.19,7.19,0,0,0,.89,2A7.44,7.44,0,0,0,84,35.46a7.45,7.45,0,0,0,2.85,1.07,6.67,6.67,0,0,0,1.19.12,8.33,8.33,0,0,0,.86-.08,7.49,7.49,0,0,0,3.23-1.14,7.57,7.57,0,0,0,2.49-2.69,7.85,7.85,0,0,0,.67-1.64,7.52,7.52,0,0,0,.28-1.79c0-.07,0-.14,0-.21a7.42,7.42,0,0,0-.92-3.53,6.43,6.43,0,0,0-.8-1.2A7.29,7.29,0,0,0,92.45,23a7.19,7.19,0,0,0-1.66-.9,7.33,7.33,0,0,0-2.73-.53,7.67,7.67,0,0,0-2.41.42A7.58,7.58,0,0,0,80.5,29.1,7.25,7.25,0,0,0,80.82,31.14Zm3.52-7.67A7.51,7.51,0,0,1,94.58,26.4c2.2,4.07-1,8.15-5.09,9-3.67.79-6.8-1.8-7.69-5.27C81.13,27.54,81.77,24.36,84.34,23.47Z"/><path class="cls-1" d="M59,27.16a30.71,30.71,0,0,0-5.91.1h0c-.6.07-1.2.15-1.8.26l-.9.17a27.4,27.4,0,0,0-5.65,1.83l-.3.13-.53.21-1,.44a24.4,24.4,0,0,0-9.23,8.35,38.2,38.2,0,0,0-4.49,9c-.42,1.21-.78,2.44-1.08,3.67-.22.87-.4,1.74-.55,2.61s-.27,1.73-.36,2.58a32.58,32.58,0,0,0-.19,3.91c0,.62,0,1.24.08,1.84A24.92,24.92,0,0,0,27.48,65c0,.2.08.39.12.59l.12.58a28.51,28.51,0,0,0,1,3.25c.12.32.27.61.4.91.2.51.41,1,.65,1.49s.33.7.51,1c.42.78.85,1.55,1.32,2.29.18.28.39.54.58.81.36.51.72,1,1.1,1.5.24.3.49.59.74.88.4.48.83.94,1.26,1.39s.75.75,1.14,1.11A30.65,30.65,0,0,0,39.12,83l.78.58q1.35.94,2.79,1.77c.31.17.6.36.91.52a33.68,33.68,0,0,0,3.58,1.6c.45.18.9.34,1.35.49a35.22,35.22,0,0,0,6.08,1.47l.58.09c.78.1,1.57.16,2.36.21.4,0,.8.06,1.21.07l.28,0c.37,0,.74,0,1.12,0,.94,0,1.89-.07,2.84-.17s1.89-.23,2.83-.42c.31-.06.62-.15.94-.23s.89-.2,1.34-.33c.22-.06.45-.09.66-.16a23.68,23.68,0,0,0,2.36-.86,28.19,28.19,0,0,0,13.77-13c.51-1,1-2,1.4-3a36.29,36.29,0,0,0,2-6.56c.19-.94.34-1.88.45-2.83s.2-2.11.22-3.16c0-.55,0-1.09,0-1.63,0-.86-.07-1.72-.16-2.58,0-.41-.1-.83-.16-1.24a30.34,30.34,0,0,0-.58-3q-.15-.61-.33-1.23c-.16-.54-.33-1.08-.52-1.61-.12-.32-.23-.65-.36-1-.2-.51-.42-1-.66-1.51s-.6-1.2-.92-1.78L85,43.15c-.39-.68-.8-1.34-1.25-2-.28-.4-.57-.79-.86-1.17-.48-.63-1-1.23-1.52-1.82s-.84-.9-1.27-1.34-.77-.74-1.17-1.1-1.1-1-1.67-1.4c-.88-.69-1.79-1.33-2.73-1.93-.44-.28-.9-.56-1.35-.82-1-.58-2.06-1.11-3.13-1.59-.42-.19-.85-.36-1.28-.53-1-.4-2-.75-3-1-.75-.22-1.5-.42-2.26-.59-.49-.11-1-.21-1.47-.29-.65-.11-1.3-.2-2-.28ZM69.23,85.8c-.69.26-1.37.53-2.09.73-.38.1-.76.16-1.14.25s-1,.26-1.55.35c-14.1,2.49-29.23-5.51-33.92-19.39a25.88,25.88,0,0,1-.93-12.15c.08-.54.16-1.07.27-1.6.18-.9.41-1.79.67-2.68a35.14,35.14,0,0,1,1.19-3.4,37.17,37.17,0,0,1,7.73-11.62A32.27,32.27,0,0,1,44.73,32a26.85,26.85,0,0,1,15.34-2.38c.45.06.89.12,1.34.2.79.13,1.59.3,2.37.5q1.55.39,3.06.93l1.28.5a32.57,32.57,0,0,1,3.27,1.55c.47.25.94.52,1.4.8.94.58,1.85,1.21,2.73,1.88.57.44,1.13.91,1.67,1.39s.84.76,1.24,1.16.91.92,1.33,1.41l.38.42a27,27,0,0,1,4.77,8.13c4,10.94.66,24.49-7.75,32.37l0,0c-.1.1-.22.18-.33.28a24.55,24.55,0,0,1-3.36,2.55c-.46.29-.92.58-1.4.84s-.91.46-1.37.68S69.72,85.61,69.23,85.8Z"/><path class="cls-1" d="M72.65,47.57c-5.71-8.21-17.35-11.31-25.37-5.38C38.91,45.5,37.92,60,40.88,67.37a1.17,1.17,0,0,1,0,.11,5.65,5.65,0,0,0,.23.57c.15.34.34.65.51,1s.36.68.56,1a18.38,18.38,0,0,0,1.07,1.5,11.59,11.59,0,0,0,.86,1A16.69,16.69,0,0,0,47.06,75l.71.45a17.49,17.49,0,0,0,3.15,1.5c.32.12.65.22,1,.32s.92.25,1.39.35.86.18,1.3.24a19,19,0,0,0,3.2.2c.61,0,1.23-.06,1.84-.13l.85-.14a19.57,19.57,0,0,0,5.15-1.6c.45-.21.9-.42,1.34-.67a17.61,17.61,0,0,0,4.93-4.19A20,20,0,0,0,72.65,47.57ZM45,45.39l.08,0h.18a.61.61,0,0,0,.23-.09,26.54,26.54,0,0,1,4.29-2.49q.93-.43,1.89-.78A20.16,20.16,0,0,1,56.16,41a16.87,16.87,0,0,1,2-.11,15,15,0,0,1,4.33.6,13.52,13.52,0,0,1,1.71.63,14.77,14.77,0,0,1,2.71,1.61,16.49,16.49,0,0,1,1.59,1.35,17.72,17.72,0,0,1,1.57,1.74c.41.53.82,1.09,1.2,1.69,0,0,0,0,0,0a18.19,18.19,0,0,1,.93,1.67A17.7,17.7,0,0,1,73,52a19.85,19.85,0,0,1,.86,3c.05.25.08.51.13.77a19.34,19.34,0,0,1,.23,2.52c0,.48,0,.95,0,1.43a18.65,18.65,0,0,1-.47,3.42,17.89,17.89,0,0,1-.89,2.8,16,16,0,0,1-5.9,7.21c-.32.21-.62.43-1,.62-7.54,4.28-17.49,2.51-22.2-5.07a.83.83,0,0,1-.08-.12h0c-.18-.3-.35-.64-.52-1q-.37-.77-.69-1.59c-.11-.28-.2-.57-.3-.86a21.16,21.16,0,0,1-.73-3.07c0-.31-.09-.63-.13-1a23.57,23.57,0,0,1-.2-2.39c0-.25,0-.5,0-.75A22.63,22.63,0,0,1,43,48.75c.07-.16.14-.33.22-.49a15.36,15.36,0,0,1,1.31-2.18C44.67,45.85,44.83,45.61,45,45.39Z"/><path class="cls-1" d="M81.8,30.16c.89,3.47,4,6.06,7.69,5.27,4.12-.88,7.29-5,5.09-9a7.51,7.51,0,0,0-10.24-2.93C81.77,24.36,81.13,27.54,81.8,30.16Zm8.34-5a4.75,4.75,0,0,1,1.54,1,5.32,5.32,0,0,1,.88,1.13,0,0,0,0,1,0,0c1.63,2.93-1.18,5.71-4.12,6a3.59,3.59,0,0,1-2-.39,4.43,4.43,0,0,1-1.29-1,5.88,5.88,0,0,1-.88-1.27,6,6,0,0,1-.64-2.17,4.48,4.48,0,0,1,.64-2.89,1.13,1.13,0,0,0,.68-.1,7.13,7.13,0,0,1,2.78-.73A5.45,5.45,0,0,1,90.14,25.19Z"/><path class="cls-1" d="M40.78,11.94a1.22,1.22,0,0,0-.49.09c-8,.23-15.77,1.79-21.44,8a24.26,24.26,0,0,0-3.47,4.87l-.16.29A28.93,28.93,0,0,0,13,30.66c-.29,1-.52,2-.72,3a56.61,56.61,0,0,0-.92,7.41c0,.59-.07,1.18-.1,1.78s0,1.44-.07,2.17,0,1.68-.06,2.51c0,1,0,2.1,0,3.14,0,.28,0,.57,0,.84,0,.57,0,1.14-.05,1.71-.06,1.55-.16,3.14-.27,4.75,0,.77-.11,1.54-.16,2.32-.11,1.49-.22,3-.32,4.5q-.1,1.47-.18,2.94C10,68.92,10,70.07,10,71.23c0,.91,0,1.83,0,2.74s0,1.53,0,2.3.05,1.36.09,2c.07,1.41.19,2.79.37,4.16,0,.25.06.5.1.74q.15,1.06.36,2.1c.09.46.17.93.28,1.38.2.89.44,1.77.71,2.63.15.48.34,1,.51,1.43.11.28.19.56.3.84.2.47.41.92.63,1.36s.49.88.75,1.3a15.53,15.53,0,0,0,1.17,1.67c.24.3.5.59.77.87a17.19,17.19,0,0,0,2,1.88c.36.29.74.57,1.13.84a22.31,22.31,0,0,0,2.06,1.22c.38.2.77.39,1.16.57a25.81,25.81,0,0,0,3.21,1.21c.45.14.89.27,1.34.38,1,.27,2.05.48,3.09.65.62.1,1.24.18,1.86.25.93.1,1.86.18,2.78.22,1.08,0,2.17.07,3.26.1l1.22,0,4.6.07h1.51c1.91,0,3.82,0,5.74,0l1.45,0,1.65,0,3.19-.09.53,0L59.2,104l4.1-.17.55,0c6.07-.29,12.13-.67,18.16-1.09,5.35-.37,10-1.77,13.76-4.55a19.53,19.53,0,0,0,5.71-6.93l.21-.42c.06-.14.13-.27.2-.42.23-.5.45-1,.65-1.56A39,39,0,0,0,104.18,83c.17-.8.32-1.6.44-2.41.09-.52.17-1,.23-1.58.21-1.63.36-3.28.46-5,0-.34,0-.69,0-1,.1-2.11.13-4.23.11-6.35,0-.57,0-1.15,0-1.72,0-1.74-.07-3.48-.13-5.19,0-.46,0-.91,0-1.36,0-1.57-.1-3.11-.13-4.62,0-.39,0-.77,0-1.15q0-.9,0-1.77V45.61c0-.84,0-1.68,0-2.53,0-.45,0-.91,0-1.37,0-.64,0-1.29-.08-1.93l-.06-.91c-.08-1.24-.2-2.47-.36-3.7l-.12-.78c0-.15,0-.3-.07-.45a26.19,26.19,0,0,0-5.29-12.71c-4-4.8-9.17-7.52-15-9l-.79-.2-1.49-.31c-1-.18-1.91-.34-2.88-.46l-1.34-.17c-2.14-.24-4.33-.35-6.54-.39-.88,0-1.76,0-2.64,0-1.35,0-2.71,0-4.07.1l-.81,0-1.16.05-3.92.23-1.84.12-1.24.09-1.46.1-2.46.17-2,.12-1.44.08-1.48.07-1.79.06C43.32,12,42,12,40.78,11.94ZM22.4,99.59c-.24-.12-.49-.24-.72-.37-.53-.29-1-.59-1.49-.91s-.75-.56-1.11-.85a15.71,15.71,0,0,1-1.93-1.89c-.25-.3-.5-.59-.72-.9a15.68,15.68,0,0,1-1.11-1.76c-.24-.43-.46-.88-.66-1.33a20.15,20.15,0,0,1-.86-2.28c-.16-.5-.29-1-.42-1.51-.21-.89-.37-1.79-.5-2.7-.07-.45-.13-.91-.18-1.36-.09-.77-.16-1.54-.21-2.32,0-.27,0-.54-.05-.81-.07-1.31-.12-2.63-.15-3.94v-.27c0-.7,0-1.41,0-2.11s0-1.64,0-2.45c0-1,0-2,.06-3s.05-2.07.1-3.1.07-2,.12-3l0-.73c.12-2.79.25-5.58.31-8.37.17-6.81-.21-13.77,1.32-20.47.2-.84.44-1.68.71-2.5A27.64,27.64,0,0,1,16,28c2.62-6,7.3-10.93,13.73-12.9.46-.14.92-.28,1.4-.38a12.74,12.74,0,0,1,1.35-.24,36.1,36.1,0,0,1,6.49,0l1.13,0a22.83,22.83,0,0,0,2.73-.11c.17,0,.34-.06.5-.09h.12l1.5,0h1.71l1.41,0,2.07-.08,2.34-.13L53.76,14l1.8-.13,4-.28c6.47-.45,13.09-.79,19.27,0l.71.1c.56.08,1.12.17,1.67.27a38,38,0,0,1,4,1l1.5.49a27.65,27.65,0,0,1,2.81,1.16c.41.19.82.4,1.22.61a25.2,25.2,0,0,1,3.16,2c.45.34.9.69,1.33,1.06s.9.8,1.33,1.24c.12.11.21.25.33.37a12.65,12.65,0,0,1,.9,1,17.85,17.85,0,0,1,2,3q.24.45.45.93a2.44,2.44,0,0,1,.14.28,27.41,27.41,0,0,1,1.78,5.63c0,.16.06.33.09.5.17.86.31,1.73.43,2.62,0,.28.07.57.1.86,0,0,0,0,0,.07.64,5.9.28,12.24,0,17.9V55c0,.44,0,.88-.07,1.32-.08,1.72-.14,3.36-.15,4.89,0,0,0,.07,0,.11v1.35c0,1.58,0,3.23,0,4.91v1.83c0,2.07,0,4.17-.18,6.27,0,.38,0,.76-.07,1.15-.13,1.72-.33,3.42-.62,5.08-.11.58-.22,1.16-.34,1.73a25.58,25.58,0,0,1-3.21,8.21A17.3,17.3,0,0,1,91,98.26a21,21,0,0,1-3.27,1.27,31.79,31.79,0,0,1-4.1.87c-.83.12-1.67.23-2.51.3-1,.1-2,.18-3,.23l-1.74.07c-2.46.09-4.91.14-7.32.29l-1.5.1-1.7.13c-1.44.12-2.87.23-4.31.32h0l-1.37.06-.3,0-3.58.18c-4.12.16-8.24.23-12.41.19-6.22,0-12.89.4-18.86-1.67-.44-.15-.88-.32-1.32-.5S22.79,99.78,22.4,99.59Z"/><path class="cls-1" d="M114.46,80c.21-2.55.38-5.13.53-7.71l.09-1.62.06-1.21c.19-4,.29-7.93.29-11.91,0-.5,0-1,0-1.51,0-2.19-.06-4.38-.16-6.57,0-.39,0-.77-.06-1.16-.06-1.24-.13-2.48-.22-3.72-.3-4.44-.76-8.85-1.44-13.19-2.09-13.3-11.55-23.53-24-28.46-.83-.32-1.66-.6-2.5-.86l-.34-.12A40.14,40.14,0,0,0,81.45.75L79.56.48C78.42.34,77.27.24,76.11.17,75.57.14,75,.1,74.48.08c-1.5,0-3,0-4.51,0L68,.09l-.71,0-.51,0-1,0-.81,0L63.56.28l-2.9.13L59.54.47,59,.49,57.45.57,53.77.78,51.93.89c-1.8.11-3.6.25-5.4.4l-1.06.08c-2.6.23-5.2.49-7.79.82C31.17,3,23.58,4.4,17.19,7.44c-.58.28-1.17.56-1.73.87a26.3,26.3,0,0,0-5.64,4l-.59.58A20.5,20.5,0,0,0,7,15.73a24.25,24.25,0,0,0-2.71,3.86A25.65,25.65,0,0,0,2.39,23.7c-.33,1-.62,1.93-.87,2.9s-.47,1.92-.65,2.88c-.11.57-.2,1.14-.29,1.71C.46,32,.35,32.77.27,33.56c-.14,1.34-.21,2.68-.24,4,0,.4,0,.81,0,1.21,0,1.2,0,2.4.07,3.6,0,.86.09,1.71.16,2.57q.22,2.9.58,5.81l.24,2c.07.47.13.94.19,1.41l.33,2.45c.14,1,.27,2.07.41,3.11,0,.18,0,.36.07.54A106.63,106.63,0,0,1,3.14,74.44c0,6,0,12,1.22,17.52.06.25.11.5.17.75.24,1,.53,1.94.86,2.89.16.45.33.9.51,1.34a24,24,0,0,0,1,2.24c.25.46.53.92.81,1.37s.74,1.1,1.14,1.64c.24.31.48.63.74.93a24.13,24.13,0,0,0,2.13,2.17c.38.34.76.68,1.17,1s.8.61,1.23.9c.19.13.35.27.55.4s.37.22.56.34c.92.59,1.87,1.13,2.82,1.63l1,.53c.85.42,1.72.81,2.59,1.17.54.22,1.08.42,1.62.62a49,49,0,0,0,5.14,1.55l1.15.26c1.05.23,2.1.44,3.17.61l1.46.2q2.46.33,4.95.48l1.72.09c1.44.05,2.89.07,4.35.05.57,0,1.15,0,1.72,0,1.81,0,3.62-.14,5.42-.26h.18l1.86-.14c1.26-.11,2.51-.21,3.75-.34l.46,0c10-.92,21.79.54,32.05-1.62.31-.06.6-.14.9-.21a35.09,35.09,0,0,0,3.58-1c.89-.31,1.76-.64,2.61-1a20.6,20.6,0,0,0,2.14-1.12,23.22,23.22,0,0,0,5.75-4.83,28.72,28.72,0,0,0,2.92-4.07,34.41,34.41,0,0,0,2.09-4.16A53.54,53.54,0,0,0,114.46,80ZM3.48,59.85c-.31-4.29-1-8.48-1.43-12.72q-.18-1.8-.27-3.6c0-.89-.06-1.77-.06-2.66,0-.7,0-1.4.05-2.1s.06-1.11.1-1.67c0-.4.06-.81.1-1.22.05-.62.11-1.23.18-1.85a40,40,0,0,1,3-11.88A.8.8,0,0,0,6,21.57a16.59,16.59,0,0,1,1.5-3.46,22.39,22.39,0,0,1,2.2-2.7,30,30,0,0,1,5.93-4.67c.74-.46,1.49-.89,2.25-1.3L19,8.84c.64-.26,1.28-.5,1.94-.73A55.47,55.47,0,0,1,27,6.42c.63-.14,1.27-.28,1.91-.4,1.75-.35,3.49-.64,5.2-.89.57-.09,1.16-.18,1.72-.25l4.75-.63,1-.13,2.21-.28q2.94-.39,5.94-.74L50.31,3C60,1.92,70.12,1.22,79.4,2.42a36.29,36.29,0,0,1,3.93.76c.57.15,1.14.29,1.71.46.35.1.69.22,1,.33,1,.32,2,.67,2.91,1.07l1.13.49a40,40,0,0,1,3.57,1.83L94.78,8c.86.53,1.69,1.1,2.51,1.69.32.23.64.46.95.7,1,.74,1.9,1.52,2.79,2.34.34.32.66.65,1,1,.74.74,1.45,1.51,2.12,2.3.26.32.52.63.77.95a33.71,33.71,0,0,1,2.07,3c.17.27.35.54.51.82a28.26,28.26,0,0,1,3,7.45c.08.33.15.67.22,1s.09.37.13.56c.27,1.27.51,2.54.71,3.82,0,.17,0,.35.08.52.09.61.17,1.23.25,1.84,0,.34.08.68.11,1,.09.83.17,1.65.24,2.47,0,.32,0,.63.08,1,.12,1.77.2,3.55.24,5.33,0,.32,0,.64,0,1,0,1.4,0,2.81,0,4.22,0,.43,0,.86,0,1.29,0,2.17-.09,4.32-.16,6.47l-.06,1.64c-.08,2.41-.17,4.8-.23,7.17,0,.2,0,.41,0,.61v.25c0,1.33-.06,2.69-.09,4.07,0,.43,0,.86,0,1.3-.06,1.83-.15,3.68-.28,5.54,0,.48-.07,1-.11,1.44-.16,1.8-.38,3.6-.67,5.37-.09.55-.18,1.1-.29,1.65a41.44,41.44,0,0,1-1.75,6.38A30.24,30.24,0,0,1,107.68,97a28,28,0,0,1-2.44,4.2,26.41,26.41,0,0,1-3.3,3.84,21,21,0,0,1-8.24,4.74c-.93.29-1.88.55-2.84.75a43.16,43.16,0,0,1-6,.79c-.74,0-1.49.09-2.24.11-1.59.06-3.18.07-4.77.07H76c-1.44,0-2.87,0-4.26,0-1,0-2,0-3,.07h0l-1.87.11-2.39.16-1.28.1c-2.13.18-4.28.39-6.44.6l-1.4.13c-8.93.84-18.06,1.53-26.46-.37a35.74,35.74,0,0,1-16.86-9A23.21,23.21,0,0,1,6,91.61c0-.07,0-.14,0-.22-.13-.56-.24-1.14-.35-1.71s-.22-1.23-.32-1.85L5.16,87c-.26-1.83-.46-3.68-.67-5.51-.12-1-.21-2.06-.28-3.09,0-.52-.07-1.05-.1-1.57C4,75.58,4,74.3,3.94,73c0-.8,0-1.59-.07-2.39,0-1.31-.05-2.62-.09-3.93,0-.72,0-1.44-.06-2.17,0-.1,0-.21,0-.32C3.66,62.76,3.59,61.3,3.48,59.85Z"/></g></g></svg>