<svg xmlns="http://www.w3.org/2000/svg" viewBox="0 0 63.4 57.79"><defs><style>.cls-1{fill:#231f20;}.cls-2{fill:#be1e2d;}.cls-3{fill:#025c2f;}</style></defs><title>Asset 30</title><g id="Layer_2" data-name="Layer 2"><g id="Layer_1-2" data-name="Layer 1"><path class="cls-1" d="M14.68,9.81c2.75,0,5.49-.1,8.24-.08s5.25.44,7.88.39C36,10,41.16,9.88,46.36,9.85c2.53,0,5.09-.25,7.61-.41,1.82-.12,4.29-.21,6-1,1.42-.71,4.61-2.79,3-4.55C60.6,1.18,54.63,1,51.4.51,46.06-.35,40.39.14,35,.14H17.88c-2.7,0-5.33.23-8,.33a25.88,25.88,0,0,0-6,.53A3.74,3.74,0,0,0,2.27,7.26C3.6,8.51,6,8.82,7.69,9.27A23.12,23.12,0,0,0,11,9.53c1,.12,3.31.1,4.08.54a.5.5,0,0,0,.5-.86c-1-.58-2-.35-3.13-.47A30.46,30.46,0,0,1,7.31,8.1c-.75-.22-1.51-.38-2.26-.61-1.32-.4-2.88-1.3-2.89-2.94,0-2.9,4.1-3,6.2-3.09C16.9,1.23,25.45,1.14,34,1.14,42.3,1.14,50.77.64,58.83,3c1.29.37,2.58.52,2.84,1.9.19,1-.18,1.16-1,1.75-1.9,1.44-4,1.59-6.28,1.79-4,.34-8,.43-12.09.39-4.55,0-9.12.66-13.67.29s-9.28-.29-14-.27a.5.5,0,0,0,0,1Z"/><path class="cls-1" d="M1.2,4.84a18.32,18.32,0,0,0-1,9A1.93,1.93,0,0,0,1.28,15.4a6.58,6.58,0,0,0,2.57.33c.84.09,1.66.32,2.5.42,8.06,1,16.15,1.82,24.28,2.38a84,84,0,0,0,11.43-.45c4.14-.3,8.23-.87,12.37-.95,2.18,0,5.5-.34,6.83-2.37.74-1.12.85-2.78,1.16-4a27.55,27.55,0,0,0,.76-4.4c0-.64-1-.64-1,0-.17,2.42-1,8.06-3.29,9-2.94,1.23-6.17.43-9.22.95a66.61,66.61,0,0,1-9.58.85c-3,.07-6,.59-9.07.41-6.55-.37-13-1.06-19.48-2-1.16-.17-2.37-.31-3.52-.45s-3.72.1-5-.4c-2.15-.85-1.89-2.65-1.83-4.5a14.36,14.36,0,0,1,1-5.11c.24-.6-.73-.86-1-.27Z"/><path class="cls-1" d="M2.52,16c0,7.73-1,15.36-.95,23.05,0,2.22-.46,4.39-.52,6.61,0,1.4-.29,3.4.28,4.73,1,2.36,5.1,3.08,7.27,3.6a95.29,95.29,0,0,0,10.75,1.67c3.95.49,8,.7,11.92,1.32,1.67.27,3.39.42,5.08.53a45.82,45.82,0,0,0,6.07.27,40,40,0,0,0,5.71-1c1.55-.36,2.83-1.3,4.35-1.67.63-.15.36-1.11-.26-1-1.34.32-2.46,1.13-3.78,1.52a46.07,46.07,0,0,1-5.38.89,30,30,0,0,1-5.84-.08c-2-.06-4-.36-6-.58-3.25-.36-6.45-.58-9.67-1.09s-6.33-.83-9.49-1.24a29.92,29.92,0,0,1-5.82-1.26c-2.59-.88-4.13-2-4.19-5a36,36,0,0,1,.36-5.49,42.43,42.43,0,0,0,.07-5.29c0-3.34.65-6.64.69-10,0-3.53.33-7,.34-10.55a.5.5,0,0,0-1,0Z"/><path class="cls-1" d="M57.18,16.31c-.17,3.31-.26,6.56-.3,9.88s-.55,6.88-.76,10.31c-.19,3-.31,6-.56,9-.21,2.64.33,7.16-3,7.94-.63.15-.36,1.11.27,1,2.35-.55,3-1.94,3.38-4.15.53-3.33.53-6.72.85-10.07.76-8,.71-16,1.13-23.93,0-.65-1-.64-1,0Z"/><path class="cls-1" d="M7.52,19.31c-.08,1.77-.44,3.49-.6,5.25-.13,1.32,0,2.63-.1,4-.29,3.43-.25,6.83-.62,10.25a65.35,65.35,0,0,0,0,8.85c.06,1.77,1.42,2.31,3,2.89,2.25.85,4.93.73,7.29,1,2.86.3,5.68.81,8.53,1.1a37.84,37.84,0,0,0,3.84,0c1.3,0,2.71.37,4,.46a62.64,62.64,0,0,0,9.78.33c2.2-.17,5.46-.11,7.45-1.22,1.68-.93,1.8-2.59,2-4.36.5-5.07.83-10,.83-15.1V23.64c0-1.62.56-4.18-1.86-3.78-1.53.25-3.14,1.1-4.68,1.49a39.82,39.82,0,0,1-5.86.87,59,59,0,0,1-10.71.06c-3.69-.32-7.34-.29-11-.77-1.95-.26-4-.46-5.9-.86-1.63-.34-3.13-1-4.79-1.18-.64-.06-.64.94,0,1,1.57.17,3,.83,4.52,1.14,1.29.26,2.62.42,3.93.63,2.7.42,5.45.71,8.18.88a99,99,0,0,0,16.69,0,41.69,41.69,0,0,0,6.83-1.26,19.73,19.73,0,0,1,3.09-1.05c.94.14.44.19.59.78a17.36,17.36,0,0,1,0,3.88v4.8c0,3.21.43,6.67-.16,9.79C51.32,42,51.39,44,51.16,46a20.61,20.61,0,0,1-.39,3.68C50,52,47.12,52,45.1,52.12a64.4,64.4,0,0,1-8,.35c-2.77-.12-5.57-.88-8.33-.86-5,0-9.71-1-14.66-1.47-2.31-.19-6.53.08-7-2.82a39.77,39.77,0,0,1,.31-10,23.54,23.54,0,0,0,0-3.66,48.27,48.27,0,0,1,.28-5.1c.2-3.07.56-6.14.7-9.2,0-.65-1-.64-1,0Z"/><path class="cls-2" d="M17.12,34c-1.33-1.37-3.71-1.1-5.19-.13A5.12,5.12,0,0,0,9.3,38.73c.21,1.64,2.77,3.61,4.14,4.32,1.11.56,2.4.38,3.56.57a5.77,5.77,0,0,0,2,0,7.07,7.07,0,0,0,4.61-2.68,7.79,7.79,0,0,0,1.07-5c-.36-1.46-.82-4.45-2.72-4-1.36.31-3.54.39-4.44,1.64"/><path class="cls-1" d="M17.47,33.63c-3.24-2.69-8.59.27-8.71,4.36-.13,4.79,6.64,6.71,10.34,6.12a7.18,7.18,0,0,0,5.93-9c-.31-1.38-.76-3.41-2.42-3.72A7.14,7.14,0,0,0,17.2,33.2c-.44.47.27,1.17.71.7a5.51,5.51,0,0,1,3.67-1.4c2,.1,2.25,1.6,2.55,3.12a6.09,6.09,0,0,1-4.21,7.25,9.09,9.09,0,0,1-8.37-1.76c-1.75-1.54-2.34-3.37-.84-5.44,1.32-1.81,4.07-3,6.06-1.33.49.41,1.2-.3.7-.71Z"/><path class="cls-3" d="M17.55,33.55c0-.71.52-1.15.79-1.75.18-.42.2-.86.39-1.28.51-1.12.84-1.85.05-3a2.3,2.3,0,0,0-2.53,2.33,9.47,9.47,0,0,0,0,2c.13.59.62,1,.38,1.59-.68-.48-.35-1.53-.85-2.09a3.71,3.71,0,0,0-1.7-.72c-1.05-.33-2.68-1.33-3.67-.74-1.83,1.1.85,2,1.75,2.38a9.1,9.1,0,0,0,3.68.43"/><path class="cls-1" d="M18.05,33.55a6.33,6.33,0,0,1,.77-1.62c.26-.62.46-1.31.68-1.95a2.94,2.94,0,0,0-.29-2.71.52.52,0,0,0-.43-.25A2.91,2.91,0,0,0,16,28.6a5.58,5.58,0,0,0-.35,2.26c0,.73.53,1.78.44,2.44l.84-.22c-.7-.75-.32-1.73-1.21-2.37a10.93,10.93,0,0,0-2.34-.87c-1.14-.44-3.07-1.24-3.93.18-1.59,2.6,5.22,3.17,6.33,3.17a.5.5,0,0,0,0-1,9.84,9.84,0,0,1-3.66-.46,3.58,3.58,0,0,1-1.24-.55c-.55-.65.13-1.07.93-.86a14.81,14.81,0,0,1,2.52.9c1.54.74,1,1.58,1.89,2.56a.49.49,0,0,0,.83-.22c.13-.85-.3-1.34-.41-2.19s.38-4.22,1.72-2.91c1,1-1.2,3.8-1.35,5.09-.07.64.93.63,1,0Z"/><path class="cls-1" d="M27.15,32.46c.56-.12.57-.19,1-.31,1-.26,1.27-.7,1.48.24a20.1,20.1,0,0,1-.15,3.27c0,1.41.19,2.82.27,4.23a9.11,9.11,0,0,1,.07,2c-.23,1.31-3.22,4.3-3.34,1.06,0-.64-1-.64-1,0,.1,2.77,4,3.35,5.11.84.77-1.78.09-4.44,0-6.26a29.53,29.53,0,0,1,0-4.31,6,6,0,0,0,0-2.39.5.5,0,0,0-.49-.36c-1.15.14-2,.78-3.18,1-.63.13-.36,1.09.27,1Z"/><path class="cls-1" d="M33.85,44.31a59.72,59.72,0,0,1,1.72-12.13l-.91.12c1.15,2.28,1.37,5.11,1.89,7.59.34,1.59.33,3.73,1.43,5a.5.5,0,0,0,.61.08,4.23,4.23,0,0,1,1.76-.84c.63-.08.64-1.08,0-1-1.07.13-1.67,1-2.17-.09a21.63,21.63,0,0,1-.73-3.8c-.59-2.52-.73-5.09-1.93-7.45a.5.5,0,0,0-.91.12,59.42,59.42,0,0,0-1.76,12.39c0,.64,1,.64,1,0Z"/><path class="cls-1" d="M32.35,39.81h3.33a.5.5,0,0,0,0-1H32.35a.5.5,0,0,0,0,1Z"/><path class="cls-1" d="M42.17,45.18c-.59-2.33-.32-4.82-.32-7.21,0-1.73-.42-4,0-5.7l-.91.11c.68,1,1.5,3.7,2.88,3.94A1.14,1.14,0,0,0,44.94,36c1.06-.87,1.26-2.26,2.6-3.08l-.73-.3a76.15,76.15,0,0,1,.71,12.72.5.5,0,0,0,1,0,77.09,77.09,0,0,0-.75-13A.5.5,0,0,0,47,32c-1.09.66-1.48,1.77-2.38,2.5-.7.56-.84.44-1.45-.34s-.89-1.59-1.38-2.31a.5.5,0,0,0-.91.12c-.49,1.8-.07,4.12-.07,6,0,2.51-.26,5,.35,7.47a.5.5,0,0,0,1-.26Z"/><path class="cls-1" d="M4.66,17.54a10.17,10.17,0,0,0-1.31,1.92,3.68,3.68,0,0,0-.58,1.68.5.5,0,0,0,1,0,3.16,3.16,0,0,1,.55-1.34,8.7,8.7,0,0,1,1-1.56c.44-.46-.26-1.17-.71-.7Z"/><path class="cls-1" d="M4.91,21a13.17,13.17,0,0,0-1.58,1.5c-.22.3-.36.64-.56,1a3.5,3.5,0,0,0-.29.49c0,.07,0,.27-.07.3-.39.5.31,1.21.71.7a2.56,2.56,0,0,0,.31-.67,8.37,8.37,0,0,1,.58-1,10,10,0,0,1,1.61-1.58c.46-.44-.25-1.15-.71-.7Z"/><path class="cls-1" d="M4.78,24.51c-.06.24-.54.47-.72.65s-.64.59-.92.91a3.84,3.84,0,0,0-.53,1c-.19.4-.45.61-.47,1.07,0,.64,1,.64,1,0,0-.2.34-.6.43-.81.23-.56.56-.73,1-1.15a6.44,6.44,0,0,1,.7-.68,1.33,1.33,0,0,0,.52-.73.5.5,0,0,0-1-.26Z"/><path class="cls-1" d="M4.83,28a14.91,14.91,0,0,1-1.48,2c-.24.26-.45.56-.72.8,0,0-.47.5-.5.5-.63.12-.36,1.08.27,1,.34-.06.37-.24.59-.47s.66-.66,1-1A16.4,16.4,0,0,0,5.7,28.52c.35-.54-.52-1-.87-.51Z"/><path class="cls-1" d="M4.41,31.51c-.16.6-1,1.1-1.52,1.43a4.07,4.07,0,0,0-1.31,1.2.5.5,0,0,0,.87.5,5.76,5.76,0,0,1,1.66-1.35,3.22,3.22,0,0,0,1.26-1.52.5.5,0,0,0-1-.26Z"/><path class="cls-1" d="M5,34.66a16.12,16.12,0,0,1-1.62,1.06c-.2.14-.42.26-.63.39s-.5.42-.78.6c-.53.35,0,1.22.51.86s1-.75,1.58-1.1a13,13,0,0,0,1.64-1.1c.49-.42-.22-1.13-.7-.71Z"/><path class="cls-1" d="M5,38.46c-.59.28-1.19.52-1.76.85a6.07,6.07,0,0,0-1.34.85c-.45.47.26,1.17.71.71A5.77,5.77,0,0,1,4,40.06c.5-.29,1-.49,1.57-.74s.07-1.14-.51-.86Z"/><path class="cls-1" d="M3.91,41.16A16.51,16.51,0,0,1,2.37,42a1.59,1.59,0,0,0-.85,1.11c-.09.64.91.63,1,0,0-.11.71-.49.85-.57a6.66,6.66,0,0,0,1.25-.7c.49-.42-.22-1.13-.71-.71Z"/><path class="cls-1" d="M4,44a3.06,3.06,0,0,1-.78.55c-.31.17-.59.39-.91.54a2.08,2.08,0,0,0-.69.4c-.23.23-.39.53-.62.76-.46.45.24,1.15.7.7.22-.21.36-.47.57-.69a4.54,4.54,0,0,1,.89-.5,7.14,7.14,0,0,0,1.54-1.06c.45-.46-.26-1.17-.7-.7Z"/><path class="cls-1" d="M3.64,46.71a6.61,6.61,0,0,0-2.06,2.18c-.33.55.53,1,.87.5a5.45,5.45,0,0,1,1.69-1.82c.55-.34.05-1.21-.5-.86Z"/><path class="cls-1" d="M5.39,48.89c-.58,0-.89.46-1.32.77s-.59,1-1,1.38.22,1.13.7.7a4.8,4.8,0,0,0,.75-1.09,2.26,2.26,0,0,1,.47-.4c.12-.1.27-.36.43-.36.64,0,.64-1,0-1Z"/><path class="cls-1" d="M6.79,50.54c-.61.52-1.29.94-1.88,1.5s.24,1.15.71.7,1.27-1,1.87-1.5-.22-1.12-.7-.7Z"/><path class="cls-1" d="M8.58,52a4.42,4.42,0,0,1-1,1c-.49.42.22,1.12.7.7a5.19,5.19,0,0,0,1.21-1.22A.5.5,0,0,0,8.58,52Z"/><path class="cls-1" d="M10.76,52.08c-.24.19-.41.42-.63.61a1.31,1.31,0,0,0-.47.57c-.25.59.72.85,1,.26-.06.15.2-.1.25-.14a4.07,4.07,0,0,1,.4-.43c.5-.39,0-1.26-.51-.87Z"/><path class="cls-1" d="M13.13,52.66a2.78,2.78,0,0,0-1.22.75c-.48.43.23,1.14.71.71a1.81,1.81,0,0,1,.78-.5c.63-.1.36-1.07-.27-1Z"/><path class="cls-1" d="M16.51,52.78a1.91,1.91,0,0,0-.85.4c-.22.17-.48.45-.77.46-.64,0-.64,1,0,1a1.77,1.77,0,0,0,1-.37,2.11,2.11,0,0,1,.9-.52c.64-.09.37-1-.26-1Z"/><path class="cls-1" d="M19,53.29a5,5,0,0,1-.72.56,2.24,2.24,0,0,0-.66.44c-.45.46.26,1.17.71.7a5.82,5.82,0,0,1,.72-.45,6.75,6.75,0,0,0,.65-.55c.5-.41-.21-1.12-.7-.7Z"/><path class="cls-1" d="M21.54,53.79c-.34.29-.68.56-1,.87a.5.5,0,0,0,.7.71c.32-.31.67-.58,1-.88.49-.42-.22-1.12-.7-.7Z"/><path class="cls-1" d="M24.16,53.79c-.44.51-.89,1-1.37,1.5a.5.5,0,0,0,.7.7c.48-.48.93-1,1.38-1.5s-.28-1.19-.71-.7Z"/><path class="cls-1" d="M26.87,56.12a7.9,7.9,0,0,1,1-.77,8.2,8.2,0,0,0,.91-.86.5.5,0,0,0-.7-.7,8.11,8.11,0,0,1-1,.88,7.17,7.17,0,0,0-.91.74c-.44.47.26,1.18.71.71Z"/><path class="cls-1" d="M29.74,56.62l.78-.61c.13-.1.33-.37.5-.37.64,0,.64-1,0-1a1.28,1.28,0,0,0-.91.42c-.35.29-.72.56-1.07.85s.21,1.11.7.71Z"/><path class="cls-1" d="M32.82,56.77A2.86,2.86,0,0,1,33.7,56a3.63,3.63,0,0,0,.79-.5c.48-.43-.23-1.14-.7-.7-.27.24-.64.33-.93.56a4.31,4.31,0,0,0-.9.91c-.38.52.49,1,.86.51Z"/><path class="cls-1" d="M35,57.12a6.61,6.61,0,0,1,1.55-1A10.89,10.89,0,0,0,38,55.24c.51-.4-.2-1.1-.7-.7a6.3,6.3,0,0,1-.69.34c-.31.18-.63.35-.94.54a6.74,6.74,0,0,0-1.37,1c-.44.48.27,1.18.7.71Z"/><path class="cls-1" d="M37.89,57.39a3.94,3.94,0,0,0,1.69-.62,8,8,0,0,0,.77-.4c.19-.11.56-.46.79-.48.64,0,.64-1,0-1a3.8,3.8,0,0,0-1.48.73c-.28.15-.57.26-.86.4s-.57.39-.91.37c-.64,0-.64,1,0,1Z"/><path class="cls-1" d="M42.27,57.39A3.43,3.43,0,0,0,44,56.65c.53-.39,1.12-.72,1.61-1.16s-.23-1.13-.71-.7-.85.58-1.25.88a3,3,0,0,1-1.39.72c-.64.06-.65,1.06,0,1Z"/><path class="cls-1" d="M47.49,56.74a33.19,33.19,0,0,0,2.63-2.25.5.5,0,0,0-.71-.7c-.81.82-1.74,1.51-2.62,2.25-.5.41.21,1.11.7.7Z"/><path class="cls-1" d="M51.87,54.74c.66-.62,1-1.52,1.62-2.12.49-.43-.22-1.14-.7-.71-.68.61-1,1.51-1.63,2.13-.46.44.24,1.15.71.7Z"/><path class="cls-1" d="M1.52,13.82c.22-.14.5-.19.74-.31s.51-.28.76-.43a10.32,10.32,0,0,0,1.47-1c.49-.43-.22-1.13-.7-.71a9.12,9.12,0,0,1-1.42.89c-.44.26-.94.39-1.36.66s0,1.21.51.86Z"/><path class="cls-1" d="M.89,12c.68-.49,1.76-.47,2.18-1.31.29-.57-.57-1.08-.86-.5-.13.25-.56.41-.81.52a5.65,5.65,0,0,0-1,.42c-.52.38,0,1.24.5.87Z"/><path class="cls-1" d="M1.62,10c.47-.45,1-.79,1.5-1.25S2.87,7.59,2.41,8s-1,.79-1.5,1.25.25,1.15.71.7Z"/><path class="cls-1" d="M5,15.16c.86-1,2.29-1.34,3.16-2.33.43-.48-.28-1.19-.7-.71-.87,1-2.3,1.33-3.17,2.33-.42.49.28,1.2.71.71Z"/><path class="cls-1" d="M9.33,16.11a2.13,2.13,0,0,1,.74-.89c.25-.22.61-.72.95-.75.63,0,.64-1,0-1a2.73,2.73,0,0,0-1.56.95,3.15,3.15,0,0,0-1.09,1.42.5.5,0,0,0,1,.27Z"/><path class="cls-1" d="M12.27,16.24c.83-.48,1.51-1.17,2.33-1.67a.5.5,0,0,0-.5-.86c-.83.49-1.5,1.19-2.34,1.67a.5.5,0,0,0,.51.86Z"/><path class="cls-1" d="M15.87,16.33c.57-.56,1.27-.95,1.83-1.5a.5.5,0,0,0-.7-.71c-.57.56-1.27.94-1.84,1.5s.25,1.16.71.71Z"/><path class="cls-1" d="M19.68,17c0-.19.54-.5.68-.63.4-.38.79-.79,1.18-1.18a.5.5,0,0,0-.71-.71,18.63,18.63,0,0,1-1.42,1.39A1.53,1.53,0,0,0,18.68,17a.5.5,0,0,0,1,0Z"/><path class="cls-1" d="M22.87,17.16a6.79,6.79,0,0,1,1-.92,4.81,4.81,0,0,0,1-.75c.43-.47-.28-1.18-.71-.7a6.09,6.09,0,0,1-1,.77,9,9,0,0,0-1,.89.5.5,0,0,0,.71.71Z"/><path class="cls-1" d="M26.87,18c.69-.6,1.18-1.38,1.84-2a15,15,0,0,0,1.9-1.92c.39-.51-.47-1-.86-.5a20.37,20.37,0,0,1-1.93,1.9c-.59.58-1,1.28-1.66,1.83s.23,1.13.71.7Z"/><path class="cls-1" d="M30.15,18.12a3.07,3.07,0,0,0,1.51-1c.59-.57,1.25-1.09,1.88-1.62s-.22-1.11-.71-.7-1.13.92-1.67,1.41c-.37.34-.75.88-1.28,1s-.36,1.06.27,1Z"/><path class="cls-1" d="M34.54,18.16c.55-.51,1-1.16,1.51-1.68a12.34,12.34,0,0,0,1.56-1.42c.39-.51-.47-1-.86-.5a18.28,18.28,0,0,1-1.55,1.35c-.48.5-.86,1.07-1.37,1.54s.23,1.15.71.71Z"/><path class="cls-1" d="M39.61,17.89c.13-.27.43-.39.67-.57s.59-.51.91-.73a7.49,7.49,0,0,0,1.51-1.1c.43-.47-.28-1.18-.7-.7A14.18,14.18,0,0,1,40.28,16c-.48.39-1.25.78-1.53,1.36s.59,1.08.86.5Z"/><path class="cls-1" d="M44.7,17.16c.7-.7,1.48-1.29,2.17-2,.45-.46-.26-1.17-.71-.71-.68.71-1.47,1.3-2.16,2-.46.46.25,1.17.7.71Z"/><path class="cls-1" d="M47.87,17c.22-.21.37-.47.57-.7a3.2,3.2,0,0,1,.9-.64c.59-.35,1.17-.73,1.76-1.08a.5.5,0,0,0-.5-.86c-.66.38-1.3.8-2,1.18a4.1,4.1,0,0,0-.73.5c-.3.27-.46.63-.75.9-.47.44.24,1.15.71.7Z"/><path class="cls-1" d="M52.37,16.66c.39-.38.81-.73,1.23-1.07a7,7,0,0,0,1.1-.93c.42-.49-.29-1.2-.7-.71a8.24,8.24,0,0,1-1.11.94c-.42.34-.84.68-1.23,1.06a.5.5,0,0,0,.71.71Z"/><path class="cls-1" d="M56.37,16.49a7.13,7.13,0,0,1,1.07-.83,11.54,11.54,0,0,0,1.1-1c.46-.45-.25-1.16-.71-.71a9.91,9.91,0,0,1-1.13,1,5.87,5.87,0,0,0-1,.82c-.43.47.27,1.18.71.7Z"/></g></g></svg>