<svg xmlns="http://www.w3.org/2000/svg" viewBox="0 0 78.16 15.93"><defs><style>.cls-1{fill:#fff;}</style></defs><title>Asset 1</title><g id="Layer_2" data-name="Layer 2"><g id="Designed_by_Freepik" data-name="Designed by Freepik"><path class="cls-1" d="M0,3.87c-.22-.51.57-.84.81-.29L6.3,14.38,11.7,3.65c.19-.5,1-.31.7.29L6.66,15.53a.39.39,0,0,1-.69,0Z"/><path class="cls-1" d="M15.73,1.83c0,.53-.89.53-.89,0V.48c0-.52.89-.52.89,0Zm-.86,2a.42.42,0,1,1,.84,0V15.48a.42.42,0,1,1-.84,0Z"/><path class="cls-1" d="M19.31,12.89c.31,1.49,2.59,2.19,4.7,2.19,1.44,0,4.52-.6,4.52-2.79,0-4.22-9.85-.36-9.85-5.54,0-2.31,2.86-3.51,5.09-3.51,1.83,0,4.37.32,5.19,2.45.17.67-.63.82-.79.31-.68-1.8-3.08-2-4.4-2-1.72,0-4.27.74-4.27,2.71,0,4.05,9.87.31,9.87,5.54,0,2.88-3.41,3.55-5.36,3.55s-5-.48-5.47-2.8A.4.4,0,1,1,19.31,12.89Z"/><path class="cls-1" d="M33.23,1.83c0,.53-.89.53-.89,0V.48c0-.52.89-.52.89,0Zm-.87,2a.42.42,0,1,1,.84,0V15.48a.42.42,0,1,1-.84,0Z"/><path class="cls-1" d="M42.37,3.46c.63,0,.63.77,0,.77H39V11.6c0,1.72.28,3.5,2.52,3.5A3.52,3.52,0,0,0,43,14.74c.5-.24,1,.38.31.72a3.62,3.62,0,0,1-1.75.41c-2.69,0-3.34-2-3.34-4.27V4.23H36c-.65,0-.65-.77,0-.77h2.23V.39a.41.41,0,0,1,.82,0V3.46Z"/><path class="cls-1" d="M53.68,10.66A4.53,4.53,0,0,0,59.41,15a5.74,5.74,0,0,0,4.2-5.47V3.77A.39.39,0,0,1,64,3.34a.4.4,0,0,1,.43.43V15.36a.4.4,0,0,1-.43.41.39.39,0,0,1-.41-.43V11.88a5.72,5.72,0,0,1-4,3.92c-3.1.67-6.79-1.16-6.79-5.14V3.77a.38.38,0,0,1,.4-.43.41.41,0,0,1,.44.43Z"/><path class="cls-1" d="M68.1,12.89c.31,1.49,2.59,2.19,4.7,2.19,1.44,0,4.52-.6,4.52-2.79,0-4.22-9.84-.36-9.84-5.54,0-2.31,2.85-3.51,5.08-3.51,1.83,0,4.37.32,5.19,2.45.17.67-.62.82-.79.31-.68-1.8-3.07-2-4.4-2-1.72,0-4.27.74-4.27,2.71,0,4.05,9.87.31,9.87,5.54,0,2.88-3.41,3.55-5.36,3.55s-5-.48-5.47-2.8A.4.4,0,1,1,68.1,12.89Z"/></g></g></svg>