<svg xmlns="http://www.w3.org/2000/svg" viewBox="0 0 63.02 131.01"><defs><style>.cls-1{fill:#fff;}</style></defs><title>Asset 2</title><g id="Layer_2" data-name="Layer 2"><g id="Object"><path class="cls-1" d="M61.41,40.63c-2.28.38-5,.91-7.67,1.2H47.56c-3.64-.58-6.26-2.58-6-7.63.52-10.42,10.87-9.58,18.71-9.6a1.16,1.16,0,0,0,.37-.07h.63v-.6a1.23,1.23,0,0,0,.1-.43c.27-7.25.74-14.45.83-21.71A1.26,1.26,0,0,0,61.56.66L61.42.58a1.58,1.58,0,0,0-.89-.1C51,.17,40.54-1,31.63,2,20.53,5,15.2,13.53,13.72,22.7a44.73,44.73,0,0,0-.94,4.69c-.48,3.26.28,7.28-.45,10.4s-2.91,3.78-5.54,4h-6v.63a1.1,1.1,0,0,0-.46.9C0,50.92-.13,58.47.26,66.05a1.23,1.23,0,0,0,1.2,1.21c4-.11,8.41-1.17,10.88,3.6.86,1.67.48,7.31.59,9,.13,1.88.22,3.77.32,5.66v33.27c-.22,3.51-1.4,7.66-.14,11a1.26,1.26,0,0,0,1.15.87c4.12.51,8.45-.72,12.64-.64,5,.09,9.78,1.19,14.74.94a1,1,0,0,0,1-1c.28-11-1-22.15-.93-33.2,0-5.16-.05-10.32,0-15.48,0-3.64-.85-10.4,1.52-13.27,3.43-4.16,9.27.12,13.56-1.9h2.4L59.52,63C62,57.39,62.18,46.17,63,42.21A1.31,1.31,0,0,0,61.41,40.63ZM58,58.41c-.51,2.18-1.09,3.87-1.58,4.31a6,6,0,0,1-4,1.46H52c-3.74,0-8-1.91-10.75,0H39.58v2.06c-1.22,2.82-.37,7.38-.38,10.16,0,6.79.06,13.59.06,20.38,0,5.49.12,11,.32,16.45v14.13l-.06.14H16.69a6.49,6.49,0,0,1-1.48-3.73v-4.93c.23-2.74.71-5.39.77-6.91a288.2,288.2,0,0,0-.77-36.81V64.18H4.8a6.66,6.66,0,0,1-2.11-3.25V47.65c1.72-4.09,5.57-3.22,9.23-3.88h3.29v-14c.34-6.3,1.58-12.28,6.11-18C25.53,6.43,31,4,36.86,2.93a37.5,37.5,0,0,1,3.92-.2l18.53.08v14.5c-.09,3.6.42,3.85-2.86,4.74s-6.8-.26-10.25.52h-.06a6.18,6.18,0,0,0-6.47,5.92c-1.48,4.37-.48,10.09-.62,14.55a1.54,1.54,0,0,0,1.5,1.5,84.75,84.75,0,0,0,10.69.11c.13,0,3.67-.61,5.81-.86h1.68a2.47,2.47,0,0,1,.63,1.63ZM13,66.13h.22v.18C13.18,66.24,13.1,66.19,13,66.13Z"/><path class="cls-1" d="M40.11,68.06a12.3,12.3,0,0,1-.31-4.34c2.67-.5,6.6.07,9.26.59"/><path class="cls-1" d="M21.32,11.78c-.34.43-.62.86-.92,1.3l8.1-7.36A22.62,22.62,0,0,0,21.32,11.78Z"/><path class="cls-1" d="M35,3.33c-.74.18-1.48.38-2.21.61-5.22,5-10.38,10.11-15.54,15.2-.33.91-.62,1.83-.86,2.75C22.61,15.76,28.74,9.49,35,3.33Z"/><path class="cls-1" d="M31.74,11.37q4.43-4.32,8.87-8.63c-.48,0-.94,0-1.41,0Q35.09,6.69,31,10.65q-7.73,7.5-15.41,15.06c-.11.79-.2,1.59-.26,2.4C20.85,22.55,26.21,16.8,31.74,11.37Z"/><path class="cls-1" d="M44.54,2.75H43C38.28,7.42,33.71,12.26,29.08,17s-9.23,9.32-13.87,14v1.62q5.85-5.88,11.7-11.76C32.82,14.85,38.58,8.68,44.54,2.75Z"/><path class="cls-1" d="M48.92,2.77h-1.8c-11.1,10.82-21,23-31.91,34.15v2.25c5.7-5.9,11-12.27,16.49-17.95C37.51,15.18,43.06,8.81,48.92,2.77Z"/><path class="cls-1" d="M7.69,44.23c-1.64,1.51-3.3,3-5,4.41v1.7A80.47,80.47,0,0,0,10.33,44C9.43,44.06,8.54,44.12,7.69,44.23Z"/><path class="cls-1" d="M30.37,26.86c-5,4.71-10.11,9.35-15.16,14v1.9C20,38.2,24.8,33.65,29.66,29.13c9-8.37,16.91-17.9,25.83-26.34H54.4C46.14,10.53,38.66,19.08,30.37,26.86Z"/><path class="cls-1" d="M12.1,43.77q-4.75,4.41-9.41,8.9v2.18Q8.4,49.29,14.17,43.77Z"/><path class="cls-1" d="M30.8,32.24c-6.49,6.22-13,12.38-19.73,18.4C8.44,53,5.49,55.3,2.69,57.73V59.6c9.63-9.38,20.23-18,29.81-27.34,9.16-9,17.85-18.4,26.81-27.57V3.43C49.79,13,40.56,22.89,30.8,32.24Z"/><path class="cls-1" d="M48.85,22.29c3.46-3.25,6.94-6.49,10.46-9.68V11.08Q52.94,16.72,46.68,22.5A13.18,13.18,0,0,1,48.85,22.29Z"/><path class="cls-1" d="M3.5,62.68A5.35,5.35,0,0,0,4.57,64C16.29,53.44,27.62,42.48,39,31.59a14.71,14.71,0,0,1,.47-2.43Q35.41,33,31.36,36.88C22.33,45.56,12.35,53.67,3.5,62.68Z"/><path class="cls-1" d="M26.54,50.11C21.62,54.87,16.3,59.42,11.2,64.18h2.24c4.32-4.18,8.7-8.32,13.07-12.55S34.85,43.27,39,39.07c0-.42,0-.84,0-1.26C34.8,41.91,30.73,46.07,26.54,50.11Z"/><path class="cls-1" d="M58.87,20c-.9.67-1.76,1.37-2.64,2.07l.22-.05a12.76,12.76,0,0,0,1.54-.5c.37-.29.72-.59,1.09-.87a2,2,0,0,0,.15-.6A.24.24,0,0,0,58.87,20Z"/><path class="cls-1" d="M15.21,64.23v2.68C22.58,60,30.05,53.12,37.38,46.07l2.11-2a1.39,1.39,0,0,1-.44-1V43c-.56.53-1.14,1-1.69,1.58C30.28,51.25,22.53,57.55,15.21,64.23Z"/><path class="cls-1" d="M13.25,66.13h-.13l0,0,.17.14Z"/><path class="cls-1" d="M15.21,70.53v1.65C22.43,65.62,30,59.38,37.15,52.91c3-2.68,5.91-5.41,8.83-8.14l-1.72-.05q-4.87,4.43-9.81,8.8C28,59.18,21.56,64.79,15.21,70.53Z"/><path class="cls-1" d="M15.32,76.73c.06.67.1,1.34.15,2Q27.05,67.91,38.61,57c4.51-4.27,9.15-8.41,13.77-12.56l-1.14.18c-.25,0-.5,0-.75,0-4.3,3.77-8.61,7.54-12.81,11.42Q26.51,66.42,15.32,76.73Z"/><path class="cls-1" d="M15.89,85C30.92,72.27,45,58.26,59.17,44.56a1.48,1.48,0,0,0-.44-.77h-.36Q37.12,63.23,15.74,82.54C15.79,83.37,15.85,84.19,15.89,85Z"/><path class="cls-1" d="M12.33,92.05c-.47.44.15,1.28.7.91.08,0,.15-.12.22-.17V91.16Z"/><path class="cls-1" d="M16.09,90.7c8.4-6.52,15.21-15.18,23-22.45a7.79,7.79,0,0,1,.51-2v-.48C31.4,73,23.87,80.93,16,88.51,16,89.24,16.07,90,16.09,90.7Z"/><path class="cls-1" d="M44.57,63.34c4.7-4,9.5-8,14.18-12l.16-1.6C53.17,54.55,47.25,59.14,41.56,64A5.84,5.84,0,0,1,44.57,63.34Z"/><path class="cls-1" d="M16.16,92.76l0,1.51c7.46-3.71,12.68-10.92,18.68-16.48,1.38-1.28,2.81-2.51,4.22-3.75,0-.54-.07-1.11-.1-1.68-1.2,1-2.4,2-3.57,3C28.83,81.14,23.28,87.66,16.16,92.76Z"/><path class="cls-1" d="M50.66,64.1l1.22-1.3c.12-.12.31.07.19.2l-.08.09c2-1.72,4.08-3.47,6.09-5.23l.14-1.36c-2.95,2.52-5.94,5-8.95,7.41C49.73,64,50.2,64.05,50.66,64.1Z"/><path class="cls-1" d="M16.2,99.58v.86c3.75-3.32,7.56-6.57,11-10.24,4.06-4.35,8-8.77,12-13.18v-.66c-4.61,5-9.22,10-14,14.93C22.42,94.22,19.29,96.88,16.2,99.58Z"/><path class="cls-1" d="M52.07,63c.12-.13-.07-.32-.19-.2l-1.22,1.3.37,0,1-1Z"/><path class="cls-1" d="M16.21,102.62c0,.66,0,1.3-.05,1.95,7.67-7,15.45-13.92,23.05-21V82.35c-4.39,3.92-8.79,7.81-13.1,11.81C23,97,19.6,99.78,16.21,102.62Z"/><path class="cls-1" d="M16,110.1c7.88-7.49,15.48-15.29,23.2-22.94V85.64c-7.81,7.43-15.42,15.07-23.15,22.59C16.05,108.85,16,109.48,16,110.1Z"/><path class="cls-1" d="M15.83,113.52c-.08.72-.19,1.55-.3,2.42,7.11-6.86,13.83-14.23,20.83-21.1L39.24,92c0-.47,0-.93,0-1.39l-3.6,3.47Q25.7,103.77,15.83,113.52Z"/><path class="cls-1" d="M16.38,117.89l-1.17,1.22v1.6q8.19-8.16,16.32-16.4c2.59-2.63,5.16-5.3,7.73-8,0-.54,0-1.07,0-1.61l-5.55,5.75C28,106.35,22.15,112.09,16.38,117.89Z"/><path class="cls-1" d="M15.39,124.79a6.86,6.86,0,0,0,.6,1.67c7.2-6.89,13.66-14.85,20.33-21.78,1-1.05,2-2.11,3-3.17l0-2.29C31.42,107.86,23.74,116.73,15.39,124.79Z"/><path class="cls-1" d="M35,110.32c-6.1,5.72-12.29,11.34-18.41,17,0,.05.07.11.11.15h1.82q7.83-7.5,15.77-14.91c1.75-1.62,3.45-3.3,5.13-5,0-.51,0-1,0-1.52C37.93,107.51,36.47,108.93,35,110.32Z"/><path class="cls-1" d="M22.88,127.5h1.46c4.35-3.86,8.66-7.74,12.78-11.77.83-.82,1.63-1.66,2.46-2.48v0c0-.53,0-1,0-1.58-1.37,1.35-2.72,2.72-4.11,4Q29.21,121.66,22.88,127.5Z"/><path class="cls-1" d="M28.24,127.5h2.38l9-8.56v-2l-3.6,3.4C33.47,122.77,30.87,125.14,28.24,127.5Z"/><path class="cls-1" d="M37.32,127.5h1.41l.85-.87v-1.39Z"/></g></g></svg>