<svg xmlns="http://www.w3.org/2000/svg" viewBox="0 0 76.95 94.39"><defs><style>.cls-1{fill:#231f20;}.cls-2{fill:#be1e2d;}.cls-3{fill:#025c2f;}</style></defs><title>Asset 31</title><g id="Layer_2" data-name="Layer 2"><g id="Layer_1-2" data-name="Layer 1"><path class="cls-1" d="M.76,8.87c.07,6.52-.53,13-.67,19.54C-.06,35.19,0,42,.05,48.77c0,6.47,0,12.94.2,19.4.1,3.19.25,6.38.48,9.56s.84,6.51.7,9.8c0,.65,1,.65,1,0a76.57,76.57,0,0,0-.67-9.32c-.25-3.18-.39-6.37-.5-9.56C1,62,1.09,55.4,1.05,48.77S1,35.53,1.08,28.9s.75-13.35.68-20a.5.5,0,0,0-1,0Z"/><path class="cls-1" d="M1.93,10.7H46.77c2.52,0,5,0,7.56,0a21.19,21.19,0,0,0,3.38,0c1-.14,1.9-.64,2.88-.68a.5.5,0,0,0,0-1,8.81,8.81,0,0,0-2.18.54,15.48,15.48,0,0,1-4.08.14c-2.52-.05-5,0-7.56,0H1.93a.5.5,0,0,0,0,1Z"/><path class="cls-1" d="M1.93,89.37C13.47,89.54,25,91,36.46,92q8.57.73,17.12,1.37c2.57.19,5.15.36,7.72.57,1.78.15,3.87.92,5.55,0,.56-.31.06-1.17-.51-.87-1,.53-2.59.07-3.68,0-1.35-.17-2.73-.21-4.08-.31l-7.45-.55q-8.31-.63-16.62-1.36c-10.85-.94-21.69-2.3-32.58-2.46a.5.5,0,0,0,0,1Z"/><path class="cls-1" d="M59.57,11.22c1,1.22.51,3.31.51,4.75,0,1.72.09,3.44.19,5.15.19,3.28.47,6.55.65,9.83.38,7,.43,14,.52,21,.19,13.88,1.34,27.68,1.32,41.55a.5.5,0,0,0,1,0c0-14.85-1.16-29.63-1.36-44.48-.09-7.42-.23-14.84-.75-22.24-.24-3.43-.53-6.86-.57-10.3,0-2,.63-4.27-.8-5.93-.42-.48-1.12.23-.71.71Z"/><path class="cls-1" d="M61,11.22a32.27,32.27,0,0,1,6.84-5.46c2-1.28,4.21-2.09,5.82-3.87.43-.48-.27-1.19-.7-.71-1.82,2-4.6,3-6.8,4.53a31.57,31.57,0,0,0-5.87,4.8c-.42.49.28,1.2.71.71Z"/><path class="cls-1" d="M65.61,93.89A14,14,0,0,0,67,91.35a44,44,0,0,1,2.59-3.81c1.57-2.37,2.61-5,4.73-7,.48-.43-.23-1.14-.71-.7-1.77,1.63-2.8,3.71-4,5.77-.68,1.14-1.45,2.21-2.21,3.31-.9,1.29-1.5,3-2.45,4.25-.4.5.31,1.21.7.71Z"/><path class="cls-1" d="M73.43,1.53q0,21.53,0,43.05c0,1.48-.1,3,0,4.47s.63,3.08.76,4.65c.27,3.09-.12,6.3-.12,9.4s-.19,6.51,0,9.72c.06,1,.62,2.11.49,3.06s-.62,1.29-.5,2.32c.08.63,1.08.64,1,0-.13-1.1.51-1.59.55-2.61s-.51-2.15-.56-3.24c-.15-3.37,0-6.79,0-10.16,0-2.95.39-6,.08-8.89-.15-1.43-.59-2.81-.72-4.25-.14-1.62,0-3.3,0-4.92q0-21.3,0-42.6a.5.5,0,0,0-1,0Z"/><path class="cls-1" d="M74.39,1.05A12.29,12.29,0,0,0,68.31.6a53.48,53.48,0,0,1-8.94.46c-6-.16-11.94.18-18-.56C36.17-.14,30.72.53,25.46.37,23,.29,19.18-.8,17.24,1.18c-.45.46.26,1.17.71.71,1.18-1.21,3.65-.8,5.17-.69,1.91.15,3.8.17,5.72.17A135,135,0,0,1,44.3,2c4.84.54,9.78,0,14.64.09A48.92,48.92,0,0,0,66,2c2.84-.37,5.34-.92,8.13.06.61.21.87-.76.26-1Z"/><path class="cls-1" d="M11.43,26.2c0,8.75-.67,17.47-.67,26.22V65.27c0,3.21-.48,6.8,0,10,.31,2.24,2.06,2.79,4.1,2.85,1.58,0,3.18-.15,4.76,0s3.39.69,5.13.74C32.44,79,40.15,80.14,47.93,80a.5.5,0,0,0,0-1c-1.71,0-3.43.19-5.13.06s-3.5-.52-5.29-.6a56.85,56.85,0,0,1-6.12-.28,24.77,24.77,0,0,0-4.29-.52c-3.19,0-6.23-.69-9.41-.66A16.13,16.13,0,0,1,13.58,77c-2.45-.68-1.84-2.9-1.82-4.82.11-7.55,0-15.12,0-22.67,0-7.76.63-15.5.67-23.26a.5.5,0,0,0-1,0Z"/><path class="cls-1" d="M11.67,26c1.78,1.24,4.36,1.05,6.41.75a13.3,13.3,0,0,1,5-.11,18,18,0,0,0,4.58.06c4-.28,8-.62,12.05-.65,1.83,0,3.68-.12,5.5,0,2.68.18,2.27,3.07,2.22,5.05-.09,3.87.35,7.66.52,11.52.18,4,.18,8.07.15,12.11,0,2.06-.14,4.17,0,6.23.09,1.61.6,3.14.71,4.75.28,3.89-.06,7.95-.06,11.85a.5.5,0,0,0,1,0c0-4.11.52-8.54,0-12.62a45.56,45.56,0,0,1-.65-5.84c0-1.94,0-3.89,0-5.83,0-4.51,0-9-.32-13.54-.15-2.15-.45-4.29-.42-6.46a36.2,36.2,0,0,0,0-5.31c-.23-1.66-.77-2.59-2.5-2.87a39.32,39.32,0,0,0-6.14,0c-2,0-4,0-6,.1s-4,.41-6,.55a18.27,18.27,0,0,1-4.31,0,19.8,19.8,0,0,0-2-.47c-3-.25-6.33,2-9.21-.07-.53-.37-1,.5-.51.87Z"/><path class="cls-2" d="M27.93,42.87c-2.05-2.12-5.71-1.7-8-.21-2.61,1.69-4.46,4.39-4,7.52.33,2.52,4.27,5.55,6.38,6.64a8.86,8.86,0,0,0,3.67.71c1.89.1,3,.58,4.85.18,3-.63,5.29-1.6,7.18-4.14a11.94,11.94,0,0,0,1.65-7.72c-.55-2.25-1.26-6.85-4.19-6.18-2.1.48-5.44.6-6.83,2.53"/><path class="cls-1" d="M28.28,42.51c-3.82-3.39-9.64-.87-11.93,3.12-2.79,4.85,1,9.08,5.21,11.38,2.25,1.22,5.83,1.52,8.35,1.33a12.25,12.25,0,0,0,7.16-3c3.6-3.35,3.69-8.69,2.12-13-.61-1.68-1.57-3.21-3.52-3.13-2.44.09-5.77.79-7.43,2.71-.42.48.29,1.19.71.7,1.37-1.58,4.43-2.33,6.51-2.36,2.52,0,3,2.91,3.46,4.91a9.65,9.65,0,0,1-6.84,11.78,13.92,13.92,0,0,1-14.45-4.41c-4.52-5.56,4.72-13.88,9.94-9.25.48.43,1.19-.28.71-.71Z"/><path class="cls-3" d="M28.59,42.2c0-1.1.8-1.77,1.21-2.7.28-.64.31-1.32.61-2,.78-1.72,1.28-2.85.06-4.61a3.52,3.52,0,0,0-3.88,3.59,14.25,14.25,0,0,0,0,3.06c.2.9,1,1.53.58,2.44-1.05-.74-.55-2.34-1.31-3.21a5.67,5.67,0,0,0-2.61-1.11c-1.63-.52-4.14-2-5.66-1.14-2.81,1.7,1.32,3.09,2.7,3.66,1.9.78,3.61.66,5.67.66"/><path class="cls-1" d="M29.09,42.2a10.15,10.15,0,0,1,1.19-2.57c.41-1,.71-2,1-3a4.23,4.23,0,0,0-.42-4,.5.5,0,0,0-.44-.25,4.17,4.17,0,0,0-3.94,2.23,8.18,8.18,0,0,0-.54,3.4c0,1.16.82,2.8.67,3.83l.84-.22c-1-1.07-.53-2.62-1.74-3.56a10.67,10.67,0,0,0-3-1.1c-1.72-.62-5-2.38-6.38-.09-2.24,3.67,8.11,4.47,9.53,4.46a.5.5,0,0,0,0-1,15.31,15.31,0,0,1-5.87-.78,12.45,12.45,0,0,1-1.86-.84c-1.82-1.09.31-2.13,1.68-1.79a20,20,0,0,1,4.32,1.52c1.73,1,1.4,2.62,2.59,3.89a.51.51,0,0,0,.84-.22c.18-1.27-.5-2-.65-3.3-.21-1.73.67-6.81,3-4.61,1.18,1.1.44,1.73-.05,3.1-.23.64-.37,1.29-.64,1.91a9.85,9.85,0,0,0-1.22,3c-.07.64.93.63,1,0Z"/><path class="cls-1" d="M18,63.78c-1,1.44-1,3.69-1.38,5.37A30.51,30.51,0,0,0,15.43,75c0,.65,1,.65,1,0a29.26,29.26,0,0,1,1.15-5.61c.35-1.45.45-3.92,1.28-5.13.36-.54-.5-1-.86-.51Z"/><path class="cls-1" d="M18.57,63.89c1,1.23.68,3,2.08,3.93a.49.49,0,0,0,.51,0c1.58-.82,1.52-2.76,2.93-3.71l-.73-.3a20.87,20.87,0,0,1,.58,5.56c0,1.26.56,3.27-.37,4.31-.42.48.28,1.19.71.71,1-1.13.8-2.77.71-4.17-.15-2.38,0-4.36-.67-6.68a.5.5,0,0,0-.73-.3,3.7,3.7,0,0,0-1,.92c-.36.49-.64,1.78-1.15,2.1-.93.6-1.17-1-1.44-1.75a4.08,4.08,0,0,0-.75-1.33c-.41-.49-1.12.22-.71.71Z"/><path class="cls-1" d="M25.93,64c-.05,3.8-.66,7.7,1.14,11.21a.48.48,0,0,0,.43.24c1.92-.11,2.77-1.27,2.94-3.12a28.51,28.51,0,0,0,0-3.58c-.08-2,.44-3.79.53-5.75,0-.64-1-.64-1,0-.09,2-.62,3.75-.53,5.75a23.79,23.79,0,0,1,0,3.58A3.32,3.32,0,0,1,29,73.8c-1.17.32-1.79,0-1.86-1A6.33,6.33,0,0,1,26.8,70c-.1-2,.1-4,.13-6a.5.5,0,0,0-1,0Z"/><path class="cls-1" d="M37.93,63.53c-1.41,0-4-.58-5.18.39a3.5,3.5,0,0,0-1,3.62,3.37,3.37,0,0,0,1.7,1.21,3.38,3.38,0,0,1,2,2.65c.27,1.17.37,2.13-.87,2.56-.88.31-2.59.39-3.32-.28-.47-.43-1.18.27-.71.71,1.73,1.57,6,1,6.06-1.72a5.84,5.84,0,0,0-1.43-4.1c-1-.91-3.66-1.19-2.2-3.32.89-1.29,3.66-.71,4.93-.72a.5.5,0,0,0,0-1Z"/><path class="cls-1" d="M38.36,67.29c1-1.5,2.57-1.74,4.16-2.29a26.4,26.4,0,0,1,4-1.48c.63-.11.36-1.08-.27-1-1.87.33-3.65,1.32-5.46,1.9a5.93,5.93,0,0,0-3.33,2.33c-.37.54.5,1,.86.51Z"/><path class="cls-1" d="M41.5,64.28a7.74,7.74,0,0,0-1.09,4.49c0,2.26,0,4.51,0,6.76a.5.5,0,0,0,1,0c0-3.14-.85-8,.93-10.74.35-.54-.51-1.05-.86-.51Z"/><path class="cls-1" d="M71.93,81.53c0-5.24.35-10.61.09-15.85-.15-2.83-2.43-3.16-4.6-1.9a3.34,3.34,0,0,0-2,2.16c-.54,2.46,0,5.61,0,8.13,0,2.9,0,5.79,0,8.68,0,1.34-.05,2.69,0,4s.43,2.47.52,3.75c0,.64,1,.65,1,0-.13-1.79-.51-3.45-.51-5.27s0-3.43,0-5.14c0-4.05,0-8.1,0-12.15,0-1.31-.24-2,1-3,.76-.67,2.8-.86,3.5,0,.46.55,0,3.39,0,4.07,0,4.18,0,8.36,0,12.54a.5.5,0,0,0,1,0Z"/><path class="cls-1" d="M68.43,69.53c1.46-.18,3.08.52,4.61.5,1.32,0,2.45-.25,3.29,1s.58,2.66.6,4,0,2.53-1.77,3a16,16,0,0,1-3.72,0c-1.36,0-3,.38-3.49-1.24-.35-1,0-2.64,0-3.75a8.56,8.56,0,0,1,.6-4,1.13,1.13,0,0,1,.9,1"/><path class="cls-1" d="M71.93,77.28a14.92,14.92,0,0,0-.25,2v1.3a9.67,9.67,0,0,0,0,1.7c.18.75,1.19.49,1.81.49s1.37.24,1.49-.69a13.64,13.64,0,0,1,0-1.43A7.2,7.2,0,0,0,75.18,79c0-.58,0-1.16,0-1.75"/><path class="cls-1" d="M2.28,9.64c2.57-2.08,5.63-3.2,8.59-4.58,2.24-1,4.55-2.91,6.94-3.54a.5.5,0,0,0-.27-1,18.45,18.45,0,0,0-3.08,1.54C12.66,3,10.9,3.87,9.08,4.71A34.64,34.64,0,0,0,1.57,8.93c-.5.41.21,1.11.71.71Z"/><path class="cls-1" d="M2.06,88.77a1.06,1.06,0,0,0,.62-.44,5,5,0,0,1,.76-.76c.72-.58,1.5-1.09,2.22-1.68.49-.41-.22-1.12-.71-.71s-1.24.92-1.85,1.4a10.15,10.15,0,0,0-.81.66c-.1.1-.37.54-.5.56-.63.1-.36,1.07.27,1Z"/><path class="cls-1" d="M2.44,85.64a7,7,0,0,0,1.87-1.26A14.71,14.71,0,0,0,5.78,83c.46-.45-.25-1.16-.71-.7a11,11,0,0,1-1.26,1.2l-.72.54a3.58,3.58,0,0,1-.92.63.5.5,0,0,0,.27,1Z"/><path class="cls-1" d="M2.86,82.91a2.6,2.6,0,0,1,.86-.79c.13-.1.45-.44.58-.46.63-.08.64-1.08,0-1a2.38,2.38,0,0,0-1.09.59A3.94,3.94,0,0,0,2,82.41c-.34.55.52,1,.86.5Z"/><path class="cls-1" d="M2.05,80.22c.57-.43,1.13-.87,1.73-1.26A6.26,6.26,0,0,0,5.28,78c.41-.49-.29-1.2-.71-.7a1.77,1.77,0,0,1-.59.36c-.31.17-.61.36-.9.55-.53.35-1,.75-1.53,1.13s0,1.26.5.87Z"/><path class="cls-1" d="M1.3,77.16a2.64,2.64,0,0,0,1.6-.78c.58-.47,1.22-.85,1.76-1.37s-.25-1.15-.71-.7-1,.74-1.45,1.11c-.32.25-.76.75-1.2.74-.64,0-.64,1,0,1Z"/><path class="cls-1" d="M1.06,73.89a2.13,2.13,0,0,0,.81-.29,7.37,7.37,0,0,1,.79-.41c.24-.12.44-.33.67-.47a4.41,4.41,0,0,0,.83-.58c.44-.47-.26-1.17-.71-.71a3.65,3.65,0,0,1-.69.47,4,4,0,0,1-.65.41,5.89,5.89,0,0,1-1.32.62c-.63.1-.36,1.06.27,1Z"/><path class="cls-1" d="M1.18,71a2.31,2.31,0,0,0,.56-.52,4.34,4.34,0,0,1,.72-.63c.61-.5,1.14-1.12,1.7-1.68S3.9,67,3.45,67.43s-1,1.09-1.56,1.57c-.21.17-.44.31-.64.49s-.33.46-.58.61c-.54.34,0,1.2.51.87Z"/><path class="cls-1" d="M1.23,67.54A6.38,6.38,0,0,1,2,66.8c.19-.24.35-.5.52-.75a5.17,5.17,0,0,0,1-1.63c.14-.63-.82-.9-1-.27a2.48,2.48,0,0,1-.44.68c-.19.29-.41.57-.61.86-.33.5-.83.84-1.15,1.34s.52,1,.86.51Z"/><path class="cls-1" d="M1.48,63.41a38.51,38.51,0,0,0,2-3.75c.27-.58-.6-1.09-.86-.5a42.15,42.15,0,0,1-2,3.75.5.5,0,0,0,.86.5Z"/><path class="cls-1" d="M1.36,59.66c.22-.35.49-.69.68-1.07a3.14,3.14,0,0,1,.62-1.08c.48-.43-.23-1.13-.71-.7a3.08,3.08,0,0,0-.7,1.11A9.73,9.73,0,0,1,.5,59.16c-.35.54.51,1,.86.5Z"/><path class="cls-1" d="M1,55.39a14.74,14.74,0,0,0,1.3-1.73,14.52,14.52,0,0,0,1.28-1.75.5.5,0,0,0-.86-.5,15.26,15.26,0,0,1-1.27,1.72A12.77,12.77,0,0,1,.32,54.68c-.47.44.24,1.15.71.71Z"/><path class="cls-1" d="M1.41,51.42c.05-.18.27-.34.38-.48s.31-.43.47-.65a7.13,7.13,0,0,1,.9-1.15c.47-.44-.24-1.14-.71-.71A8.21,8.21,0,0,0,1.4,49.79a5.29,5.29,0,0,0-.95,1.36c-.2.62.77.88,1,.27Z"/><path class="cls-1" d="M.68,48.16c1.29-.14,2-1.38,2.73-2.27.41-.49-.29-1.2-.71-.71s-.62.86-1,1.24-.66.7-1,.74c-.64.07-.64,1.07,0,1Z"/><path class="cls-1" d="M1,45.64c.36-.29.75-.53,1.09-.84s.68-.79,1-1.16-.26-1.17-.71-.71-.66.8-1,1.16-.73.56-1.09.84.21,1.1.71.71Z"/><path class="cls-1" d="M1.28,42.89a32.63,32.63,0,0,0,2.63-2.63.5.5,0,0,0-.71-.7A32.51,32.51,0,0,1,.57,42.18c-.5.4.21,1.1.71.71Z"/><path class="cls-1" d="M1.48,40.41a9,9,0,0,1,2.05-2.27c.46-.45-.25-1.16-.71-.71a10,10,0,0,0-2.2,2.48c-.28.57.58,1.08.86.5Z"/><path class="cls-1" d="M1.05,37.72a12.24,12.24,0,0,0,2.11-2c.45-.45-.26-1.16-.71-.7a11.09,11.09,0,0,1-1.9,1.79c-.55.34-.05,1.2.5.87Z"/><path class="cls-1" d="M1,57.14c.32-.31.69-.55,1-.87.1-.11.42-.6.52-.61.64,0,.65-1,0-1a1.46,1.46,0,0,0-1,.66A15.91,15.91,0,0,1,.32,56.43c-.46.45.25,1.16.71.71Z"/><path class="cls-1" d="M1.41,34.92c.16-.53.78-.91,1.13-1.31s.87-.76.89-1.33-1-.64-1,0c0,.11-.46.47-.54.56a7.14,7.14,0,0,1-.54.56,2.93,2.93,0,0,0-.9,1.25.5.5,0,0,0,1,.27Z"/><path class="cls-1" d="M1.28,32.39c.82-.83,1.35-1.89,2.13-2.75.42-.48-.28-1.19-.71-.71-.78.87-1.31,1.92-2.13,2.75-.45.46.26,1.17.71.71Z"/><path class="cls-1" d="M1.53,29.64a5.89,5.89,0,0,0,.86-1.34c.31-.51.67-1,1-1.51s-.55-1.07-.86-.51-.59.9-.87,1.36a6.37,6.37,0,0,1-.81,1.29c-.46.45.25,1.16.71.71Z"/><path class="cls-1" d="M1.53,25.51c.63-.57,1.42-.78,2-1.47.4-.51-.47-1-.86-.51s-1.26.79-1.8,1.28.24,1.14.71.7Z"/><path class="cls-1" d="M1.43,21.09a5.38,5.38,0,0,0,1-.66c.3-.25.66-.4.94-.67.46-.45-.25-1.16-.71-.7-.23.22-.57.34-.82.56a4.74,4.74,0,0,1-1,.61c-.57.28-.07,1.15.51.86Z"/><path class="cls-1" d="M1.43,22.59a8.08,8.08,0,0,0,2.23-1.45c.43-.47-.27-1.18-.71-.71a4.17,4.17,0,0,1-1,.69c-.36.2-.69.42-1.06.61-.57.29-.06,1.15.51.86Z"/><path class="cls-1" d="M1.31,18.77a2.3,2.3,0,0,0,1-.67,14.4,14.4,0,0,1,1.11-1c.5-.41-.22-1.11-.71-.71a11.21,11.21,0,0,0-.91.77c-.23.21-.43.52-.75.6a.5.5,0,0,0,.27,1Z"/><path class="cls-1" d="M1.66,16.26,3,14.89a.5.5,0,0,0-.71-.71L1,15.56c-.46.45.25,1.16.71.7Z"/><path class="cls-1" d="M2,13.41a4.93,4.93,0,0,1,.8-1c.48-.44-.23-1.14-.71-.71a5.46,5.46,0,0,0-.95,1.23c-.34.55.53,1.05.86.5Z"/><path class="cls-1" d="M2.93,9.66a11.18,11.18,0,0,0,1.62-.37,1.91,1.91,0,0,0,1.23-.4.5.5,0,0,0-.71-.71c-.17.18-.64.11-.87.16a7,7,0,0,1-1.27.32.5.5,0,0,0,0,1Z"/><path class="cls-1" d="M6.05,7.53A3.61,3.61,0,0,0,8.18,7c.52-.38,0-1.24-.51-.87a2.64,2.64,0,0,1-1.62.43.5.5,0,0,0,0,1Z"/><path class="cls-1" d="M8.43,6A10.29,10.29,0,0,0,9.79,6c.47,0,.91-.12,1.39-.12a.5.5,0,0,0,0-1A13,13,0,0,0,9.79,5,8.82,8.82,0,0,1,8.43,5a.5.5,0,0,0,0,1Z"/><path class="cls-1" d="M12.56,4a13.59,13.59,0,0,1,2.62-.24.5.5,0,0,0,0-1,15.62,15.62,0,0,0-2.89.27c-.63.12-.36,1.08.27,1Z"/><path class="cls-1" d="M16.68,2.16a8.44,8.44,0,0,1,1.74.11c.63.13.9-.84.27-1a9.72,9.72,0,0,0-2-.14.5.5,0,0,0,0,1Z"/><path class="cls-1" d="M4.81,88.89a8.89,8.89,0,0,0,2.43-1.34,13.94,13.94,0,0,0,2-1.41c.45-.47-.26-1.17-.71-.71a12.36,12.36,0,0,1-1.83,1.26,9,9,0,0,1-2.2,1.24c-.6.2-.34,1.17.27,1Z"/><path class="cls-1" d="M8.43,89a5.85,5.85,0,0,0,1.83-.63,4.7,4.7,0,0,0,1.65-1.14.5.5,0,0,0-.71-.7,3.82,3.82,0,0,1-1.42,1A5.09,5.09,0,0,1,8.43,88a.5.5,0,0,0,0,1Z"/><path class="cls-1" d="M12.31,89.14c.34-.1.63-.29,1-.42s.7-.22,1-.37a8.73,8.73,0,0,0,1.72-1c.51-.4-.21-1.1-.71-.71a5.25,5.25,0,0,1-.71.36,7.15,7.15,0,0,1-.91.48c-.3.12-.62.2-.92.32s-.48.26-.74.34a.5.5,0,0,0,.27,1Z"/><path class="cls-1" d="M15.81,89.39a7.6,7.6,0,0,0,1.6-.89,8.57,8.57,0,0,0,1.5-.86c.48-.43-.23-1.14-.71-.71a7,7,0,0,1-1.29.71,7.49,7.49,0,0,1-1.37.79.5.5,0,0,0,.27,1Z"/><path class="cls-1" d="M18.81,89.77A4,4,0,0,0,20.4,89a10.67,10.67,0,0,0,1.51-1c.47-.44-.24-1.14-.71-.7a9.41,9.41,0,0,1-1.31.84,3.09,3.09,0,0,1-1.35.65c-.63.09-.36,1.06.27,1Z"/><path class="cls-1" d="M23.41,90.14a7.1,7.1,0,0,1,1.25-.9,14.8,14.8,0,0,0,1.37-1c.47-.44-.24-1.15-.71-.7a13.71,13.71,0,0,1-1.38,1,6.39,6.39,0,0,0-1.24.89c-.42.48.28,1.19.71.71Z"/><path class="cls-1" d="M26.18,90.34c.72-.41,1.45-.8,2.18-1.19a9.15,9.15,0,0,0,1.55-.89c.49-.41-.22-1.11-.71-.7a3.78,3.78,0,0,1-.64.31c-.32.17-.63.37-.95.54-.64.35-1.29.7-1.94,1.07a.5.5,0,0,0,.51.86Z"/><path class="cls-1" d="M30,91.14c.63-.53,1.4-.9,2.06-1.39s1.24-.88,1.82-1.36-.22-1.12-.71-.71c-1.21,1-2.67,1.74-3.88,2.75-.49.42.22,1.12.71.71Z"/><path class="cls-1" d="M34.43,91.22A11.54,11.54,0,0,0,37.28,89c.46-.45-.25-1.15-.71-.7a10.54,10.54,0,0,1-2.65,2c-.57.29-.07,1.15.51.87Z"/><path class="cls-1" d="M37.78,91.39a7.83,7.83,0,0,1,1.43-.9c.49-.29,1-.61,1.47-.9a.5.5,0,0,0-.51-.86c-.55.32-1.08.68-1.63,1a7.59,7.59,0,0,0-1.47,1c-.48.43.23,1.14.71.71Z"/><path class="cls-1" d="M41.16,91.89c.62-.55,1.43-.88,2.05-1.45L44,89.8A.87.87,0,0,0,44.3,89c0-.64-1-.64-1,0,.07,0,.06,0,0,0l-.16.1-.26.21a5.91,5.91,0,0,1-.81.69,16.73,16.73,0,0,0-1.62,1.13c-.49.42.22,1.13.71.71Z"/><path class="cls-1" d="M45.55,92.47a12.67,12.67,0,0,0,2.48-2c.49-.42-.22-1.12-.71-.7a11.55,11.55,0,0,1-2.27,1.79c-.58.29-.07,1.15.5.87Z"/><path class="cls-1" d="M48.8,92.28c.61,0,1-.46,1.41-.83a8.17,8.17,0,0,0,1.52-1.29c.38-.52-.49-1-.86-.5a6.07,6.07,0,0,1-1.23,1c-.22.18-.54.65-.84.66-.64,0-.64,1,0,1Z"/><path class="cls-1" d="M52.3,92.72a11,11,0,0,0,3.23-2.08c.46-.45-.25-1.16-.71-.71a10.07,10.07,0,0,1-3,1.92c-.59.27-.08,1.13.5.87Z"/><path class="cls-1" d="M42.81,92.39a2.08,2.08,0,0,0,.94-.49,6,6,0,0,0,.78-.64c.42-.48-.28-1.19-.71-.7a2.93,2.93,0,0,1-1.28.87c-.63.1-.36,1.06.27,1Z"/><path class="cls-1" d="M56.66,93.26a11.54,11.54,0,0,1,1.09-.87c.4-.34.75-.74,1.18-1s0-1.24-.51-.86-.83.72-1.25,1.09a14.63,14.63,0,0,0-1.22,1c-.44.47.27,1.17.71.7Z"/><path class="cls-1" d="M59.31,93.14a1.63,1.63,0,0,0,.87-.56c.31-.33.66-.62,1-.94s-.26-1.17-.71-.71c-.26.26-.54.5-.8.75s-.34.44-.61.5c-.63.13-.36,1.09.27,1Z"/><path class="cls-1" d="M66.78,86.76a5.81,5.81,0,0,0,.8-1c.18-.27.22-.67.45-.89.47-.45-.24-1.15-.71-.71a2.6,2.6,0,0,0-.48.88,3.88,3.88,0,0,1-.77,1,.5.5,0,0,0,.71.7Z"/><path class="cls-1" d="M67.68,87.91c0-.29.31-.54.46-.77a1.94,1.94,0,0,0,.39-.85c.11-.63-.85-.9-1-.26a2.29,2.29,0,0,1-.52.92,2,2,0,0,0-.37,1c-.07.64.93.63,1,0Z"/><path class="cls-1" d="M66.53,82.14q.78-.66,1.5-1.38c.46-.45-.25-1.16-.71-.7s-1,.93-1.5,1.37.22,1.12.71.71Z"/><path class="cls-1" d="M66.91,83.64c.45-.45,2-1.77,1.12-2.46-.5-.39-1.21.31-.71.71-.17-.14,0-.3-.17,0a3.54,3.54,0,0,1-.35.42c-.19.21-.4.41-.6.61a.5.5,0,0,0,.71.71Z"/><path class="cls-1" d="M66.28,78.26c.28-.26.58-.5.88-.75.48-.42-.23-1.12-.71-.7-.29.25-.6.48-.88.75-.47.44.24,1.14.71.7Z"/><path class="cls-1" d="M66.16,80.14c.26-.26.67-.38.88-.68a.87.87,0,0,0-.06-.93c-.27-.58-1.13-.07-.86.51.12-.17.11-.2,0-.09l-.23.14a4.23,4.23,0,0,0-.4.34c-.47.45.24,1.15.71.71Z"/><path class="cls-1" d="M66.53,74.92c.06-.19.26-.34.38-.5a6.36,6.36,0,0,1,.5-.66c.46-.45-.25-1.15-.71-.7a9,9,0,0,0-.66.84,2.44,2.44,0,0,0-.47.75c-.2.62.77.88,1,.27Z"/><path class="cls-1" d="M66.66,71.89c.41-.43.74-.92,1.12-1.38s-.29-1.2-.71-.7-.71.94-1.12,1.37.26,1.18.71.71Z"/><path class="cls-1" d="M66.91,69.76a2,2,0,0,0,.52-1.23c0-.64-1-.64-1,0a.88.88,0,0,1-.23.53c-.42.48.28,1.19.71.7Z"/><path class="cls-1" d="M66.31,67.77a3.13,3.13,0,0,0,1.07-.52,4.44,4.44,0,0,0,1.15-.86c.42-.48-.28-1.19-.71-.71a3.69,3.69,0,0,1-.95.71,2.31,2.31,0,0,1-.83.41c-.63.09-.36,1,.27,1Z"/></g></g></svg>