<svg xmlns="http://www.w3.org/2000/svg" viewBox="0 0 56.48 27.51"><defs><style>.cls-1,.cls-2{fill:#fff;}.cls-2{font-size:12px;font-family:PTSans-Regular, PT Sans;}</style></defs><title>Asset 1</title><g id="Layer_2" data-name="Layer 2"><g id="Layer_1-2" data-name="Layer 1"><path class="cls-1" d="M13.64,1a10.07,10.07,0,0,0-9,.16A7.77,7.77,0,0,0,.45,5.9c-1.19,3.73.2,6.42,1.74,9.82S7.58,27.38,8.69,27.5s2.1-2.36,3.69-5.45,4.67-9.33,5.15-12.74S16.7,2.38,13.64,1Zm3.27,8.47c-.21-.12-3.18-3.7-3.36-3.73s-.47,0-.26.21S16.73,9.81,16.73,10s-.15,1.08-.29,1-2.83-3.84-3.09-3.87-.36.33-.18.48a48,48,0,0,1,3,3.91c0,.18,0,.54-.12.51s-2.64-3.58-2.94-3.49-.27.27-.18.45,2.85,3.52,2.85,3.52-.23.84-.41.78-2.26-3.1-2.53-3.1-.51.18-.3.45,2.59,3.13,2.56,3.28-.54,1.44-.62,1.29a35.66,35.66,0,0,0-2.53-3.75c-.24,0-.3,0-.18.33s2.53,3.45,2.56,3.72-.09.78-.3.6-2.47-3.51-2.71-3.57-.44,0-.26.27a36.34,36.34,0,0,1,2.67,3.67c-.09.18-.12.93-.26.72a36.2,36.2,0,0,0-2.56-3.49c-.21,0-.54.18-.3.39a30.68,30.68,0,0,1,2.59,3.49c-.06.15-.27.93-.45.75s-2-2.89-2.26-3-.47.12-.29.42a35.07,35.07,0,0,1,2.28,3c-.09.18.06,1-.35.63s-1.94-2.58-2.26-2.58-.48.24-.3.48,2.2,2.7,2.2,2.7-.21.63-.3.54a19.15,19.15,0,0,0-2.11-2.67c-.29,0-.41.09-.32.27a32.94,32.94,0,0,1,2.11,2.79c0,.24,0,1.21-.33.85A15,15,0,0,0,8.86,19.7c-.18,0-.39.06-.21.36s1.84,2,1.78,2.17-.24.57-.35.54S8.71,21,8.47,21s-.27.12-.21.36,1.55,1.69,1.49,1.87-.15.51-.33.3a10.58,10.58,0,0,0-1.31-1.44c-.14,0-.44.15-.26.33s1.48,1.62,1.39,1.77-.38.87-.65.6-3.95-7-5.68-10.31S.15,8.94.86,6.48A7,7,0,0,1,3.6,2.42,9.63,9.63,0,0,1,9.39.67a9.1,9.1,0,0,1,4.25,1c.36.21.24.42.33.51s2.23,2.55,2.41,2.67.32,1.17.09,1S13.26,2,12.84,1.94s-.44.36-.27.45,4,3.9,4.16,4.26.3,1.66,0,1.27a47.22,47.22,0,0,0-3.44-4.18c-.39-.21-.51.36-.3.48s3.66,4.15,3.8,4.45.3.9.09.78ZM3.18,4.19c-.59.15-1.75,1.92-1.93,3.4a4.47,4.47,0,0,0,.65,3.12c.12.06.39.09.45-.27s-.57-2-.54-2.94A5.57,5.57,0,0,1,3.39,4.76c.33-.24.39-.72-.21-.57ZM7,4.7A2.44,2.44,0,0,0,6.6,8.13,2.89,2.89,0,0,0,10,8.61a2.76,2.76,0,0,0,.47-3.4A2.45,2.45,0,0,0,7,4.7ZM8.86,8.19C8.05,8.43,7.64,7.8,7.49,7s.36-.94.83-1.18a1.29,1.29,0,0,1,1.76.73A1.63,1.63,0,0,1,8.86,8.19Z"/><text class="cls-2" transform="translate(22.26 18.07)">find us</text></g></g></svg>