<svg xmlns="http://www.w3.org/2000/svg" viewBox="0 0 75.58 94.16"><defs><style>.cls-1{fill:#231f20;}.cls-2{fill:#be1e2d;}.cls-3{fill:#025c2f;}.cls-4{fill:none;}</style></defs><title>Asset 34</title><g id="Layer_2" data-name="Layer 2"><g id="Layer_1-2" data-name="Layer 1"><path class="cls-1" d="M29.9,9.29c2.77.37,5.47.88,8.24,1.18a50.12,50.12,0,0,0,7,.09,48.24,48.24,0,0,0,5.62-.72,5,5,0,0,0,3.69-2.09.51.51,0,0,0-.07-.61c-1.49-1.49-4.4-1.33-6.36-1.6a42.94,42.94,0,0,0-8.45-.78c-2.83.18-6.56-.06-9,1.69-.91.64-1.92,1.68-1.05,2.69.42.49,1.12-.22.71-.7-.61-.71,2.64-1.91,2.88-2A12.77,12.77,0,0,1,37,6c2,0,3.83-.24,5.82-.08s4,.4,6,.7c.68.1,1.36.23,2,.33s2.46-.2,1.69,1.32c-.41.81-3.32.69-4.23.83a54.46,54.46,0,0,1-6.74.43c-4,.08-7.77-.75-11.7-1.27-.63-.09-.63.91,0,1Z"/><path class="cls-1" d="M29.15,8c0,1.24-.49,3.57.13,4.69.37.69,1.33.83,2,1a33.18,33.18,0,0,0,9.36,1.46c3.16,0,6.83.45,9.9-.49,2.63-.81,3.21-4.22,3.8-6.55a.5.5,0,0,0-1-.27,30.43,30.43,0,0,1-1.26,3.46c-.74,1.94-1.31,2.35-3.25,2.58a64.78,64.78,0,0,1-7.76.27,28.26,28.26,0,0,1-7.22-.86c-.9-.23-2.26-.25-3-.79-1.23-.87-.71-3.2-.72-4.53a.5.5,0,0,0-1,0Z"/><path class="cls-1" d="M29.78,13.24c0,2.93-.11,5.83-.19,8.75-.05,1.87-.23,4-1.31,5.57-.94,1.34-2.33,2.38-3.4,3.62A15.1,15.1,0,0,0,22.34,37a43.9,43.9,0,0,0-1.56,9.45c-.34,6.45-.53,12.84-1.29,19.27-.4,3.31-.48,6.59-.55,9.93-.06,3.07-.42,6.15-.43,9.23a.5.5,0,0,0,1,0,166.83,166.83,0,0,1,1.08-19.74c.76-6.23.86-12.44,1.19-18.69a39.78,39.78,0,0,1,2-10.7,11.81,11.81,0,0,1,2-3.94c.94-1.13,2.06-2.1,3-3.22,1.51-1.76,1.76-4.3,1.78-6.55,0-2.92.19-5.82.19-8.75a.5.5,0,0,0-1,0Z"/><path class="cls-1" d="M51.05,13.66c-.1,3-.31,6-.22,9s1.36,5.23,2.67,7.7c3.31,6.22,3,13.43,2.53,20.3-.44,6.7-.14,13.45-.65,20.14-.19,2.54-.42,5.08-.59,7.62-.2,3.25-1.33,6.35-1.43,9.59,0,.64,1,.64,1,0,.1-3.12,1.15-6.16,1.42-9.29.22-2.62.41-5.23.61-7.85.52-6.72.2-13.48.64-20.21.21-3.21.33-6.64.26-9.85a23.48,23.48,0,0,0-1.58-8.21c-1.3-3.2-3.66-6-3.87-9.57-.17-3.1.11-6.23.21-9.32a.5.5,0,0,0-1,0Z"/><path class="cls-1" d="M18.44,85.6C23.62,90,31.1,91.21,37.65,91.17c5.22,0,12.21.67,16.57-2.86.5-.4-.21-1.1-.71-.7-2.24,1.81-5.13,2-7.86,2.3s-5.31.25-8,.26c-6.23,0-13.57-1.13-18.51-5.28-.49-.41-1.2.3-.7.71Z"/><path class="cls-1" d="M27,33.77c-.09.3-.38.54-.49.86a20.18,20.18,0,0,0-.44,4c-.35,2.85-.56,5.72-.93,8.56-.67,5.16-.67,10.36-1.05,15.53-.19,2.71-.28,5.43-.4,8.14-.06,1.42,0,2.84-.05,4.26a23.9,23.9,0,0,0-.28,3.25c.49,4,6.66,3.73,9.46,3.91,5.3.34,10.75.8,16-.42,1.32-.31,2-.66,2.28-2a43.09,43.09,0,0,0,.28-8.19c0-10.91.21-21.81.84-32.65.06-1.14,0-2.14.12-3.29,0-.28.29-.69.17-1a1.31,1.31,0,0,0-.51-.73c-.51-.32-1.44.09-1.92.17a29.16,29.16,0,0,1-4.85.35c-3.2,0-6.36-.22-9.55-.25-2.74,0-5.45-.73-8.17-.87-.65,0-.64,1,0,1,1.94.1,4,.47,6,.67,2.2.23,4.45.39,6.68.47s4.34,0,6.48,0a24.83,24.83,0,0,0,3.23-.27,3,3,0,0,1,.76-.16c1,.33.5.35.61,1.2.22,1.79-.3,3.58-.31,5.36,0,2.32-.23,4.57-.3,6.88-.14,4.71-.24,9.48-.24,14.2,0,5.07.54,10.47-.12,15.5-.2,1.56,0,1.94-2.3,2.72a17.05,17.05,0,0,1-3.12.62c-2.48.21-5.09,0-7.58,0-1.91,0-3.81-.17-5.72-.27a33.63,33.63,0,0,1-3.63-.56c-2.95-.52-3.21-1.51-3.23-4.22,0-4.75.14-9.51.48-14.25.37-5.19.53-10.37,1.14-15.55.49-4.25.58-8.59,1.69-12.66a.5.5,0,0,0-1-.27Z"/><path class="cls-1" d="M28.62,66.11c-1.44-1.49-4.44-.17-3.13,1.94.58.94,2,.51,2.48,1.47a1.33,1.33,0,0,1-.55,1.87c-.71.28-1.23,0-1.16-.75,0-.64-1-.64-1,0-.21,2.52,3.43,2.31,3.8.17a2.41,2.41,0,0,0-1.23-2.73c-.48-.2-1.32-.15-1.55-.69-.48-1.12,1.09-1.13,1.63-.57s1.15-.25.71-.71Z"/><path class="cls-1" d="M29.15,66.18a12.12,12.12,0,0,0,.16,2.56A15.74,15.74,0,0,1,29.43,72a.5.5,0,0,0,1,0,20.87,20.87,0,0,0,0-2.74,24.78,24.78,0,0,1-.27-3.11.5.5,0,0,0-1,0Z"/><path class="cls-1" d="M29.58,67.1c.56.59,1.28,1.84,2.23,1.78s1.54-1.52,2-2.23h-.86A4.7,4.7,0,0,1,33.05,69c0,.91,0,1.83,0,2.74a.5.5,0,0,0,1,0c0-1.09,0-2.18,0-3.27a4.06,4.06,0,0,0-.3-2.34.51.51,0,0,0-.86,0c-.2.34-.76,1.73-1.21,1.72s-1.16-1.19-1.42-1.47c-.45-.47-1.15.24-.71.71Z"/><path class="cls-1" d="M34.16,67c0,1.5-.47,4.77,1.05,5.74a1.45,1.45,0,0,0,2-.88,7.69,7.69,0,0,0,.4-2.28c.13-1.15.43-2.27.58-3.42.09-.63-.91-.62-1,0-.18,1.36-.48,2.68-.63,4-.09.72-.66,2.61-1.16,1.06A13.51,13.51,0,0,1,35.16,67a.5.5,0,0,0-1,0Z"/><path class="cls-1" d="M38.28,67.8A23.59,23.59,0,0,0,42,67.22c.64-.09.37-1.06-.26-1s-1.07.23-1.61.36a7.41,7.41,0,0,1-1.88.18.5.5,0,0,0,0,1Z"/><path class="cls-1" d="M38.62,67.85a15.91,15.91,0,0,1,0,2.49,14.39,14.39,0,0,0,0,2c0,.64,1,.64,1,0,0-.39-.1-.73-.12-1.12a6.3,6.3,0,0,1,.12-1,18.9,18.9,0,0,0,0-2.38.5.5,0,0,0-1,0Z"/><path class="cls-1" d="M41.34,67.52a7.59,7.59,0,0,0,1.84-.16,8.94,8.94,0,0,1,2.06-.4.5.5,0,0,0,0-1,6.66,6.66,0,0,0-1.83.29,7.22,7.22,0,0,1-2.07.27.5.5,0,0,0,0,1Z"/><path class="cls-1" d="M41.68,67.3v5a.5.5,0,0,0,1,0v-5a.5.5,0,0,0-1,0Z"/><path class="cls-1" d="M45.72,66.11c-.81.89-.45,2.21-.43,3.3s-.41,2.68.35,3.71c.38.51,1.25,0,.86-.51-.57-.78-.22-2.08-.21-3,0-.75-.41-2.2.14-2.8s-.28-1.19-.71-.71Z"/><path class="cls-2" d="M37.8,50.89c-1.11-1.15-3.1-.92-4.34-.11a4.28,4.28,0,0,0-2.19,4.07c.18,1.37,2.31,3,3.46,3.6a9.38,9.38,0,0,0,3,.48,4.63,4.63,0,0,0,1.7,0,5.9,5.9,0,0,0,3.84-2.24,6.48,6.48,0,0,0,.9-4.19c-.3-1.22-.68-3.71-2.27-3.35-1.14.26-3,.33-3.71,1.38"/><path class="cls-1" d="M38.15,50.53c-2.78-2.17-7.2.1-7.4,3.61-.24,4.09,5.59,5.79,8.71,5.28a6.1,6.1,0,0,0,5-7.75c-.27-1.16-.67-2.74-2-3a5.91,5.91,0,0,0-4.61,1.53c-.45.46.26,1.17.71.71a4.59,4.59,0,0,1,3-1.14c1.66.08,1.83,1.16,2.07,2.45a5,5,0,0,1-3,5.9,7.89,7.89,0,0,1-6.44-.6c-1.31-.87-2.65-2.1-2.26-3.89.48-2.21,3.6-3.93,5.61-2.36.5.39,1.21-.31.7-.71Z"/><path class="cls-3" d="M38.16,50.53c0-.6.43-1,.66-1.47.15-.34.17-.71.33-1.07.42-.93.69-1.54,0-2.5a1.91,1.91,0,0,0-2.1,1.95,7.1,7.1,0,0,0,0,1.66c.11.49.52.83.32,1.33-.58-.41-.3-1.28-.72-1.75a3,3,0,0,0-1.41-.6c-.88-.28-2.25-1.11-3.07-.62-1.52.92.71,1.68,1.46,2a7.41,7.41,0,0,0,3.08.36"/><path class="cls-1" d="M38.66,50.53a5.32,5.32,0,0,1,.64-1.34c.22-.52.39-1.09.57-1.62a2.51,2.51,0,0,0-.26-2.33.49.49,0,0,0-.43-.25,2.5,2.5,0,0,0-2.36,1.38,4.94,4.94,0,0,0-.3,1.91c0,.61.45,1.48.37,2l.84-.22c-.58-.61-.26-1.44-1-2a9,9,0,0,0-2-.75c-1-.41-2.55-1-3.36.17-.53.78.12,1.44.79,1.82a8.78,8.78,0,0,0,4.56,1,.5.5,0,0,0,0-1,7.81,7.81,0,0,1-3-.38c-.29-.11-.82-.21-1-.45l-.25-.14c.16-.54.47-.68,1-.42a11.65,11.65,0,0,1,2.1.75c1.21.58.79,1.32,1.54,2.12a.51.51,0,0,0,.84-.22c.1-.73-.25-1.14-.34-1.85s.3-3.42,1.32-2.39c.77.77-1.06,3.19-1.18,4.21-.07.63.93.63,1,0Z"/><path class="cls-1" d="M19.26,85.39a17.68,17.68,0,0,1,2.51-1.8.5.5,0,0,0-.51-.86,19.18,19.18,0,0,0-2.71,2c-.49.42.22,1.13.71.71Z"/><path class="cls-1" d="M19.7,83c0-.1.35-.27.42-.34.23-.2.43-.43.65-.64s.66-.43.72-.93-.92-.63-1,0c0-.25,0-.12-.1-.06a1.23,1.23,0,0,0-.28.23c-.19.18-.37.39-.56.57s-.71.47-.81.9c-.15.63.81.9,1,.27Z"/><path class="cls-1" d="M19.68,80.07a5.94,5.94,0,0,1,.59-.38c.26-.18.49-.4.74-.59a16,16,0,0,0,1.38-1.22.5.5,0,0,0-.71-.71,15.88,15.88,0,0,1-1.45,1.27c-.4.33-.88.58-1.26.92s.23,1.14.71.71Z"/><path class="cls-1" d="M19.78,77.36a12.9,12.9,0,0,1,1-.92c.32-.27.55-.57.84-.86.46-.45-.25-1.16-.71-.7a11.21,11.21,0,0,1-.84.85,12.9,12.9,0,0,0-1,.92.5.5,0,0,0,.71.71Z"/><path class="cls-1" d="M20.41,74c.53-.59,1-1.18,1.56-1.78s-.28-1.19-.71-.7-1,1.18-1.56,1.77.27,1.19.71.71Z"/><path class="cls-1" d="M20,71.38a5.83,5.83,0,0,0,1-.89c.33-.34.73-.61,1.06-1s-.27-1.18-.71-.71-.65.55-.95.85a5.76,5.76,0,0,1-.93.85c-.54.35,0,1.21.5.86Z"/><path class="cls-1" d="M20.2,68.8a26.44,26.44,0,0,0,3-2.19c.44-.48-.27-1.19-.7-.71a25.39,25.39,0,0,1-3,2.19c-.5.41.21,1.11.71.71Z"/><path class="cls-1" d="M20.62,66.09c.71-.72,1.36-1.49,2.08-2.2.46-.45-.24-1.15-.7-.7-.73.7-1.38,1.48-2.09,2.19-.46.45.25,1.16.71.71Z"/><path class="cls-1" d="M20.93,63.06c.36-.36.74-.72,1.09-1.09a11.15,11.15,0,0,1,.79-.89c.48-.43-.23-1.14-.71-.71-.3.27-.51.6-.79.89s-.73.73-1.09,1.09a.5.5,0,0,0,.71.71Z"/><path class="cls-1" d="M21,61c.84-1,1.8-1.88,2.59-2.92.38-.51-.48-1-.87-.5-.73,1-1.64,1.79-2.42,2.72-.42.48.29,1.2.7.7Z"/><path class="cls-1" d="M21.13,57.66c.45-.07.87-.64,1.2-.93.57-.5,1.08-1.07,1.62-1.6a.5.5,0,0,0-.7-.71c-.45.45-.89.91-1.35,1.35-.21.19-.43.36-.64.56s-.24.34-.4.36c-.63.1-.37,1.06.27,1Z"/><path class="cls-1" d="M21.66,55c.43-.43.83-.89,1.23-1.35.15-.18.31-.35.45-.54s.25-.43.41-.61c.42-.48-.29-1.19-.71-.71s-.54.79-.86,1.15-.79.93-1.23,1.36.25,1.16.71.7Z"/><path class="cls-1" d="M21.55,52c.44-.44.82-.93,1.27-1.36a4.48,4.48,0,0,0,1-1c.31-.57-.55-1.07-.86-.5-.2.38-.67.64-1,.95s-.75.84-1.15,1.24.25,1.17.7.71Z"/><path class="cls-1" d="M21.45,48.45c.46-.46,1-.86,1.52-1.3s1.06-1,1.61-1.41-.21-1.1-.71-.71-1.08.94-1.61,1.42-1.06.83-1.52,1.29.26,1.17.71.71Z"/><path class="cls-1" d="M22.29,45.63c.33-.32.72-.59,1-.94s-.27-1.17-.71-.7-.71.61-1,.94.24,1.15.71.7Z"/><path class="cls-1" d="M22.18,43.44c.43-.46.89-.94,1.36-1.36s.92-.34,1.25-.73-.29-1.2-.71-.7c-.14.16-.42.19-.61.28a2.64,2.64,0,0,0-.64.45c-.47.42-.93.89-1.36,1.35s.27,1.18.71.71Z"/><path class="cls-1" d="M22.48,39.81a5.93,5.93,0,0,0,.71-.24c.26-.07.49-.22.75-.28.63-.14.37-1.1-.26-1-.27.06-.5.21-.76.28s-.48.2-.7.24c-.64.1-.37,1.07.26,1Z"/><path class="cls-1" d="M23.64,37.08a7.27,7.27,0,0,1,.89-.54c.32-.22.66-.44,1-.64A.5.5,0,0,0,25,35c-.38.22-.76.46-1.11.71s-.68.36-1,.62c-.49.42.22,1.12.71.71Z"/><path class="cls-1" d="M24.36,33.76A7.76,7.76,0,0,1,26,33.3a2.09,2.09,0,0,0,1.2-.5c.44-.47-.26-1.18-.71-.71-.21.23-.69.23-1,.27a7,7,0,0,0-1.41.44c-.59.22-.33,1.19.27,1Z"/><path class="cls-1" d="M27,30.81a3.59,3.59,0,0,1,.8-.35A6,6,0,0,1,28.85,30c.62-.15.36-1.11-.27-1a6.8,6.8,0,0,0-1.3.56,3.43,3.43,0,0,0-1,.51c-.47.43.24,1.14.71.7Z"/><path class="cls-1" d="M29.69,27.27a5,5,0,0,1,1-.52,4.92,4.92,0,0,0,1-.74c.46-.44-.24-1.15-.71-.7A3.76,3.76,0,0,1,30,26a3.3,3.3,0,0,0-1,.54c-.48.44.23,1.14.7.71Z"/><path class="cls-1" d="M30.42,24.87c.08-.09.2-.1.3-.16a1.84,1.84,0,0,0,.38-.31l.89-.89a.5.5,0,0,0-.71-.71c-.29.3-.58.61-.88.89s-.49.24-.68.47c-.42.49.29,1.2.7.71Z"/><path class="cls-1" d="M31,22.15c.35-.3.79-.51,1.14-.83s-.22-1.14-.7-.71-.79.53-1.15.84.22,1.12.71.7Z"/><path class="cls-1" d="M31,20.17c.39-.64,1.3-1.23,1.33-2a.5.5,0,0,0-1,0c0,.17-.37.45-.48.58a6.44,6.44,0,0,0-.71.94.5.5,0,0,0,.86.5Z"/><path class="cls-1" d="M31,18c.23-.25.5-.45.75-.68s.38-.47.6-.68c.48-.43-.23-1.14-.7-.7-.23.2-.38.46-.61.67s-.51.44-.75.68c-.45.47.26,1.17.71.71Z"/><path class="cls-1" d="M31,15.79a9.15,9.15,0,0,1,.76-1.15c.41-.49-.29-1.2-.71-.71a10.4,10.4,0,0,0-.91,1.36.5.5,0,0,0,.86.5Z"/><path class="cls-1" d="M30.73,13A1.61,1.61,0,0,0,32,12.12c.22-.6-.75-.87-1-.26.05-.15-.17,0-.25.07a1.33,1.33,0,0,1-.34.1c-.63.11-.36,1.07.27,1Z"/><path class="cls-1" d="M30.11,12.11a3.39,3.39,0,0,0,.84-.5c.48-.42-.23-1.12-.71-.7a2.94,2.94,0,0,1-.63.34c-.58.27-.07,1.13.5.86Z"/><path class="cls-1" d="M30.11,10.88c.24-.19.45-.21.6-.52.29-.57-.58-1.08-.86-.5-.06.11-.34.23-.45.32-.49.41.22,1.11.71.7Z"/><path class="cls-1" d="M32.72,13.7A13.54,13.54,0,0,1,34,12.87c.5-.42-.21-1.12-.7-.71s-.9.45-1.26.83.27,1.18.71.71Z"/><path class="cls-1" d="M34.6,14a5.47,5.47,0,0,1,.59-.49,3.22,3.22,0,0,0,.56-.34c.49-.41-.22-1.12-.71-.71-.18.15-.41.22-.59.36s-.37.32-.56.48c-.49.42.22,1.12.71.7Z"/><path class="cls-1" d="M35.92,14.47a4.6,4.6,0,0,0,1.81-.8.5.5,0,0,0-.5-.86,3.77,3.77,0,0,1-1.31.66c-.63.09-.64,1.09,0,1Z"/><path class="cls-1" d="M38.67,14.74c.19-.16.45-.23.64-.4s.32-.44.51-.64c.42-.48-.28-1.19-.71-.71a6.51,6.51,0,0,1-.51.64c-.2.15-.44.24-.64.41-.49.41.22,1.12.71.7Z"/><path class="cls-1" d="M40.86,15.16a5.41,5.41,0,0,1,1-.86.5.5,0,0,0-.51-.86,6.36,6.36,0,0,0-1.25,1,.5.5,0,0,0,.71.71Z"/><path class="cls-1" d="M42.73,14.77a5.63,5.63,0,0,0,.9-.49,3.06,3.06,0,0,0,.88-.58c.44-.47-.27-1.18-.7-.71a2.46,2.46,0,0,1-.69.42,3.69,3.69,0,0,1-.66.39c-.61.21-.35,1.17.27,1Z"/><path class="cls-1" d="M44.93,15a3.36,3.36,0,0,1,.86-.45,2.91,2.91,0,0,0,.91-.59c.45-.47-.26-1.18-.7-.71s-1.28.56-1.78,1.05.25,1.15.71.7Z"/><path class="cls-1" d="M48.56,14.54c.24-.41.58-.74.83-1.15s-.53-1.05-.86-.5c-.25.4-.59.74-.84,1.14a.5.5,0,0,0,.87.51Z"/><path class="cls-1" d="M50.46,14.43l.84-.83c.45-.46-.26-1.17-.71-.71l-.84.83c-.45.46.26,1.17.71.71Z"/><path class="cls-1" d="M21.63,86.86a6.63,6.63,0,0,1,.78-.89c.29-.31.52-.68.81-1,.44-.47-.26-1.17-.7-.7s-.59.76-.93,1.11a6.29,6.29,0,0,0-.82,1c-.35.54.52,1.05.86.51Z"/><path class="cls-1" d="M20.51,86.12c.3-.29.64-.54.94-.83.46-.45-.24-1.16-.71-.71-.3.29-.63.54-.94.84-.46.44.25,1.15.71.7Z"/><path class="cls-1" d="M23.23,87.77a15.07,15.07,0,0,0,1.33-1.06c.45-.39.93-.73,1.38-1.11s-.22-1.12-.71-.71-.83.65-1.24,1a13.82,13.82,0,0,1-1.27,1c-.54.35,0,1.22.51.87Z"/><path class="cls-1" d="M25.51,88.34a4.08,4.08,0,0,0,1.16-.78,8.7,8.7,0,0,0,1.25-1c.43-.48-.27-1.19-.71-.71a6.74,6.74,0,0,1-1.05.87,3.74,3.74,0,0,1-.92.67c-.6.21-.34,1.18.27,1Z"/><path class="cls-1" d="M27,89.46c.37-.31.83-.55,1.22-.85l.66-.51c.15-.11.43-.45.61-.49.63-.15.37-1.11-.26-1a1.33,1.33,0,0,0-.6.39c-.26.23-.55.43-.83.64-.49.38-1,.69-1.51,1.08s.22,1.12.71.71Z"/><path class="cls-1" d="M29.8,90c.53-.54,1-1.12,1.56-1.67s-.25-1.17-.7-.7-1,1.12-1.57,1.67.26,1.17.71.7Z"/><path class="cls-1" d="M32.07,90.09c.24-.33.7-.48,1-.74a5.51,5.51,0,0,0,.41-.43c.15-.15.34-.25.48-.4.45-.46-.26-1.17-.7-.7-.15.15-.34.24-.48.39a3.2,3.2,0,0,1-.53.51,3.55,3.55,0,0,0-1.06.87c-.37.52.5,1,.87.5Z"/><path class="cls-1" d="M34.39,90.69c.82-.41,1.42-1.11,2.19-1.57a.5.5,0,0,0-.5-.86c-.78.45-1.38,1.16-2.19,1.56-.58.29-.07,1.16.5.87Z"/><path class="cls-1" d="M38.05,90.58a5.39,5.39,0,0,0,1.08-.89c.41-.35.83-.68,1.21-1.06a.5.5,0,0,0-.71-.71c-.34.34-.71.65-1.09,1a6.12,6.12,0,0,1-1,.83c-.57.29-.07,1.15.51.86Z"/><path class="cls-1" d="M40.55,91c.88-.73,1.84-1.37,2.71-2.09.5-.41-.21-1.11-.71-.71-.18.15-.36.24-.54.4s-.5.35-.73.53c-.49.38-1,.77-1.44,1.16s.21,1.11.71.71Z"/><path class="cls-1" d="M44.1,90.71c.92-.77,1.75-1.65,2.6-2.5a.5.5,0,0,0-.7-.71c-.85.86-1.69,1.73-2.61,2.51-.49.41.22,1.12.71.7Z"/><path class="cls-1" d="M47.23,90.61a4.06,4.06,0,0,0,.87-1.18,5.64,5.64,0,0,1,.69-1.22c.43-.48-.27-1.19-.71-.71-.65.73-.83,1.74-1.56,2.4-.48.44.23,1.14.71.71Z"/><path class="cls-1" d="M50,90c.63-.53.64-1.38,1.15-2s-.28-1.19-.71-.71-.56,1.49-1.14,2,.22,1.12.7.7Z"/><path class="cls-1" d="M52.63,88.84a6.46,6.46,0,0,0,.42-.83,2.62,2.62,0,0,0,.36-.86c.08-.63-.88-.9-1-.26a2,2,0,0,1-.31.71,4.54,4.54,0,0,1-.37.73c-.39.51.48,1,.87.51Z"/><rect class="cls-4" width="75.58" height="94.16"/></g></g></svg>